<?xml version="1.0" encoding="UTF-8" standalone="no"?>
<svg
   xmlns:dc="http://purl.org/dc/elements/1.1/"
   xmlns:cc="http://creativecommons.org/ns#"
   xmlns:rdf="http://www.w3.org/1999/02/22-rdf-syntax-ns#"
   xmlns:svg="http://www.w3.org/2000/svg"
   xmlns="http://www.w3.org/2000/svg"
   xmlns:sodipodi="http://sodipodi.sourceforge.net/DTD/sodipodi-0.dtd"
   xmlns:inkscape="http://www.inkscape.org/namespaces/inkscape"
   enable-background="new 0 0 40 40"
   id="Слой_1"
   version="1.1"
   viewBox="0 0 40 40"
   xml:space="preserve"
   sodipodi:docname="basket_icon-icons.com_67985.svg"
   inkscape:version="0.92.0 r15299"><metadata
     id="metadata11"><rdf:RDF><cc:Work
         rdf:about=""><dc:format>image/svg+xml</dc:format><dc:type
           rdf:resource="http://purl.org/dc/dcmitype/StillImage" /></cc:Work></rdf:RDF></metadata><defs
     id="defs9" /><sodipodi:namedview
     pagecolor="#ffffff"
     bordercolor="#666666"
     borderopacity="1"
     objecttolerance="10"
     gridtolerance="10"
     guidetolerance="10"
     inkscape:pageopacity="0"
     inkscape:pageshadow="2"
     inkscape:window-width="1366"
     inkscape:window-height="706"
     id="namedview7"
     showgrid="false"
     inkscape:zoom="5.9"
     inkscape:cx="23.728814"
     inkscape:cy="20"
     inkscape:window-x="-8"
     inkscape:window-y="-8"
     inkscape:window-maximized="1"
     inkscape:current-layer="Слой_1" /><ellipse
     style="fill:#ffcc00;fill-opacity:1;stroke:#ffcc00;stroke-width:5.16819811;stroke-miterlimit:4;stroke-dasharray:none;stroke-opacity:1"
     id="path4488"
     cx="20.084745"
     cy="20.254236"
     rx="17.01753"
     ry="17.187021" /><g
     id="g4"
     transform="matrix(0.83458034,0,0,0.75786925,4.2207462,6.5859564)"
     style="stroke:#ffffff;fill:#ffffff"><path
       d="M 38.9,11.9 C 38.1,11 37,10.4 35.8,10.4 H 20.4 c -0.5,0 -1,0.4 -1,1 0,0.6 0.5,1 1,1 h 15.4 c 0.6,0 1.2,0.3 1.6,0.7 0.4,0.5 0.6,1.1 0.4,1.7 l -0.9,5 h -11 c -0.5,0 -1,0.4 -1,1 0,0.6 0.5,1 1,1 h 10.7 l -0.9,4.8 c -0.1,0.7 -0.8,1.2 -1.5,1.2 H 15 c -0.7,0 -1.3,-0.5 -1.5,-1.2 L 9.6,4.9 C 9.5,4.4 9.1,4.1 8.6,4.1 H 0.9 c -0.5,0 -1,0.4 -1,1 0,0.6 0.5,1 1,1 h 6.9 l 3.8,21 c 0.2,1.4 1.2,2.4 2.5,2.8 -0.5,0.7 -0.9,1.6 -0.9,2.6 0,2.5 2,4.5 4.5,4.5 2.5,0 4.5,-2 4.5,-4.5 0,-0.9 -0.3,-1.8 -0.8,-2.5 h 6.1 c -0.5,0.7 -0.8,1.6 -0.8,2.5 0,2.5 2,4.5 4.5,4.5 2.5,0 4.5,-2 4.5,-4.5 0,-1 -0.3,-1.9 -0.8,-2.6 1.3,-0.3 2.4,-1.4 2.7,-2.8 L 39.8,15.3 C 40,14.1 39.7,12.9 38.9,11.9 Z M 20.2,32.4 c 0,1.4 -1.1,2.5 -2.5,2.5 -1.4,0 -2.5,-1.1 -2.5,-2.5 0,-1.4 1.1,-2.5 2.5,-2.5 1.4,0 2.5,1.1 2.5,2.5 z m 11.1,2.5 c -1.4,0 -2.5,-1.1 -2.5,-2.5 0,-1.4 1.1,-2.5 2.5,-2.5 1.4,0 2.5,1.1 2.5,2.5 0,1.4 -1.1,2.5 -2.5,2.5 z"
       id="path2"
       inkscape:connector-curvature="0"
       style="stroke:#ffffff;fill:#ffffff" /></g></svg>