<?xml version="1.0" encoding="UTF-8" standalone="no"?>
<svg
   xmlns:dc="http://purl.org/dc/elements/1.1/"
   xmlns:cc="http://creativecommons.org/ns#"
   xmlns:rdf="http://www.w3.org/1999/02/22-rdf-syntax-ns#"
   xmlns:svg="http://www.w3.org/2000/svg"
   xmlns="http://www.w3.org/2000/svg"
   xmlns:sodipodi="http://sodipodi.sourceforge.net/DTD/sodipodi-0.dtd"
   xmlns:inkscape="http://www.inkscape.org/namespaces/inkscape"
   viewBox="0 0 370 370"
   version="1.1"
   id="svg4"
   sodipodi:docname="shopping-cart-304843.svg"
   width="370"
   height="370"
   inkscape:version="0.92.0 r15299">
  <metadata
     id="metadata10">
    <rdf:RDF>
      <cc:Work
         rdf:about="">
        <dc:format>image/svg+xml</dc:format>
        <dc:type
           rdf:resource="http://purl.org/dc/dcmitype/StillImage" />
        <dc:title></dc:title>
      </cc:Work>
    </rdf:RDF>
  </metadata>
  <defs
     id="defs8" />
  <sodipodi:namedview
     pagecolor="#ffffff"
     bordercolor="#666666"
     borderopacity="1"
     objecttolerance="10"
     gridtolerance="10"
     guidetolerance="10"
     inkscape:pageopacity="0"
     inkscape:pageshadow="2"
     inkscape:window-width="1366"
     inkscape:window-height="706"
     id="namedview6"
     showgrid="false"
     inkscape:zoom="0.21024499"
     inkscape:cx="794.00573"
     inkscape:cy="561.25"
     inkscape:window-x="-8"
     inkscape:window-y="-8"
     inkscape:window-maximized="1"
     inkscape:current-layer="svg4" />
  <path
     d="m 362.31305,12.357103 c -0.56104,0.008 -1.137,0.0575 -1.688,0.1562 -0.01,0.002 -0.021,-0.002 -0.031,0 l -55.625,9.5 c -3.538,0.607 -6.504,3.0329 -7.813,6.375 a 2.529,2.529 0 0 0 0,0.0312 l -25.812,66.187 -251.909995,6.281997 c -2.897,0.072 -5.617,1.38 -7.5,3.562 -1.884,2.182 -2.79,5.083 -2.438,7.969 l 13.906,115.03 c 0.574,4.826 4.561,8.653 9.407,9.031 l 179.589995,14.282 35.594,28 a 2.529,2.529 0 0 0 0.125,0.093 c 0.038,0.027 0.086,0.037 0.125,0.063 0.044,0.029 0.081,0.065 0.125,0.093 6.496,4.849 8.106,11.455 7.188,15.125 -0.52301,2.092 -1.322,3.629 -3.219,4.813 -1.897,1.184 -5.174,2.041 -10.781,1.719 a 2.529,2.529 0 0 0 -0.063,0 c -0.17999,-0.006 -0.383,-0.004 -0.56299,0 -0.03,0 -0.064,-10e-4 -0.094,0 l -214.189998,0.625 h -0.03101 c -5.629,-0.036 -10.366,4.685 -10.344,10.312 0.022,5.628 4.778,10.331 10.406,10.25 h 0.03099 l 15.657,-0.031 c -5.818,3.708 -9.719,10.195 -9.719,17.563 0,11.458 9.385,20.843 20.844,20.843 11.458,0 20.843,-9.385 20.843,-20.843 0,-7.408 -3.911,-13.959 -9.781,-17.657 l 176.379998,-0.5 c -6.35401,3.583 -10.68701,10.384 -10.68701,18.157 0,11.458 9.385,20.843 20.84301,20.843 11.459,0 20.844,-9.385 20.844,-20.843 0,-9.952 -7.06901,-18.341 -16.43701,-20.375 8.85701,-3.134 15.661,-9.595 19.875,-19.469 a 2.529,2.529 0 0 0 0.15601,-0.375 c 3.23,-12.917 -2.499,-26.959 -14.313,-36.094 a 2.529,2.529 0 0 0 -0.094,-0.094 c -0.029,-0.022 -0.034,-0.071 -0.062,-0.093 a 2.529,2.529 0 0 0 -0.34302,-0.34399 l -25.219,-19.781 78.656,-201.469997 49.906,-8.5 c 0.01,-0.002 0.022,0.002 0.031,0 5.243,-0.8429 9.077,-5.7292 8.625,-11.031 -0.45196,-5.3122 -5.081,-9.4786 -10.406,-9.4062 h 10e-4 z m -98.563,98.124997 -14.5,37.188 h -18.906 v -36.344 z m -40.625,1.032 v 36.156 h -34.906 v -35.281 z m -42.125,1.031 v 35.125 h -34.906 v -34.25 z m -42.125,1.062 v 34.063 h -34.906 v -33.188 z m -42.125,1.063 v 33 H 61.844051 v -32.125 z m -42.124999,1.031 v 31.969 h -25.594 l -3.781,-31.219 z m -24.719,39.156 h 24.719 v 32.657 h -20.781 z m 31.938,0 H 96.75005 v 32.657 H 61.844051 Z m 42.124999,0 h 34.906 v 32.657 h -34.906 z m 42.125,0 h 34.906 v 32.657 h -34.906 z m 42.125,0 h 34.906 v 32.657 h -34.906 z m 42.125,0 h 16.125 l -12.75,32.657 h -3.375 z m -195.619999,39.844 h 19.906 v 23.438 l -17.25,-1.375 z m 27.125,0 H 96.75505 v 26.781 l -34.905999,-2.781 z m 42.124999,0 h 34.906 v 30.125 l -34.906,-2.75 z m 42.125,0 h 34.906 v 33.5 l -34.906,-2.781 z m 42.125,0 h 34.906 v 19.875 l -6.625,16.969 c -0.85998,-0.41702 -1.798,-0.673 -2.75,-0.75 l -25.531,-2.031 z m 42.125,0 h 0.53101 l -0.531,1.469 v -1.469 z m -176.839999,132.44 c 6.811,0 12.25,5.439 12.25,12.25 0,6.811 -5.439,12.218 -12.25,12.218 -6.811,0 -12.25,-5.407 -12.25,-12.218 0,-6.811 5.439,-12.25 12.25,-12.25 z m 197.589999,0 c 6.811,0 12.25,5.439 12.25,12.25 0,6.811 -5.439,12.218 -12.25,12.218 -6.811,0 -12.25,-5.407 -12.25,-12.218 0,-6.811 5.439,-12.25 12.25,-12.25 z m -197.589999,5.812 c -3.7,0 -6.656,2.956 -6.656,6.656 0,3.701 2.956,6.625 6.656,6.625 3.7,0 6.656,-2.924 6.656,-6.625 0,-3.7 -2.956,-6.656 -6.656,-6.656 z m 197.589999,0 c -3.7,0 -6.656,2.956 -6.656,6.656 0,3.701 2.956,6.625 6.656,6.625 3.7,0 6.656,-2.924 6.656,-6.625 0,-3.7 -2.956,-6.656 -6.656,-6.656 z"
     id="path2"
     inkscape:connector-curvature="0"
     style="fill:#ffcc00;stroke-width:18.5;fill-opacity:1" />
</svg>
