<?xml version="1.0" encoding="UTF-8"?>
<svg viewBox="0 0 341.32669 1047.1382" xmlns="http://www.w3.org/2000/svg" xmlns:xlink="http://www.w3.org/1999/xlink">
 <defs>
  <linearGradient id="b">
   <stop stop-color="#fff" stop-opacity="0" offset="0"/>
   <stop stop-color="#fff" offset="1"/>
  </linearGradient>
  <linearGradient id="a">
   <stop stop-opacity=".38824" offset="0"/>
   <stop stop-opacity=".19216" offset=".5"/>
   <stop stop-opacity="0" offset="1"/>
  </linearGradient>
  <linearGradient id="o" x2="0" y1="633.63" y2="407.58" gradientUnits="userSpaceOnUse">
   <stop stop-opacity=".38824" offset="0"/>
   <stop stop-color="#fff" stop-opacity=".34375" offset=".5"/>
   <stop stop-color="#fff" stop-opacity=".19608" offset="1"/>
  </linearGradient>
  <linearGradient id="e" x1="18.32" x2="145.76" y1="428.5" y2="137.48" gradientUnits="userSpaceOnUse">
   <stop stop-color="#fff" offset="0"/>
   <stop stop-color="#fff" stop-opacity="0" offset="1"/>
  </linearGradient>
  <linearGradient id="n" x1="238.76" x2="317.05" y1="339.24" y2="333.88" gradientTransform="scale(.73371 1.3629)" gradientUnits="userSpaceOnUse" xlink:href="#a"/>
  <linearGradient id="m" x1="458.7" x2="404.87" y1="329.58" y2="326.23" gradientTransform="scale(.73371 1.3629)" gradientUnits="userSpaceOnUse" xlink:href="#a"/>
  <linearGradient id="l" x2="0" y1="404.9" y2="426.31" gradientUnits="userSpaceOnUse" xlink:href="#a"/>
  <linearGradient id="k" x1="199.15" x2="193.92" y1="696.9" y2="593.57" gradientTransform="scale(1.3814 .72391)" gradientUnits="userSpaceOnUse" xlink:href="#a"/>
  <linearGradient id="j" x2="0" y1="431.94" y2="370.05" gradientUnits="userSpaceOnUse" xlink:href="#b"/>
  <linearGradient id="i" x1="118.26" x2="156.1" y1="563.02" y2="564.04" gradientTransform="scale(1.5493 .64544)" gradientUnits="userSpaceOnUse" xlink:href="#a"/>
  <linearGradient id="h" x1="177.77" x2="178.45" y1="831.06" y2="795.11" gradientTransform="scale(1.549,.64558)" gradientUnits="userSpaceOnUse" xlink:href="#a"/>
  <linearGradient id="g" x2="0" y1="551.15" y2="598.53" gradientUnits="userSpaceOnUse" xlink:href="#b"/>
  <linearGradient id="f" x2="0" y1="549.93" y2="601.22" gradientUnits="userSpaceOnUse" xlink:href="#b"/>
  <radialGradient id="d" cx="184.2" cy="780.47" r="49.972" fx="182.58" fy="734.33" gradientTransform="scale(1.455,.68728)" gradientUnits="userSpaceOnUse">
   <stop stop-color="#fff" offset="0"/>
   <stop stop-color="#fff" stop-opacity=".16078" offset=".52956"/>
   <stop stop-opacity=".05882" offset=".67709"/>
   <stop stop-opacity="0" offset="1"/>
  </radialGradient>
  <radialGradient id="c" cx="106.53" cy="541.32" r="49.665" fx="105.48" fy="502.11" gradientUnits="userSpaceOnUse">
   <stop stop-color="#fff" stop-opacity=".61983" offset="0"/>
   <stop stop-color="#fff" stop-opacity="0" offset="1"/>
  </radialGradient>
 </defs>
 <g transform="translate(-1.2218 -1.505)">
  <g transform="translate(2.8571 -2.8571)">
   <path d="m159.24 4.3622h16.886a44.412 44.412 0 0 1 44.412 44.412v37.81a44.412 44.412 0 0 1 -44.412 44.412h-16.886a44.412 44.412 0 0 1 -44.412 -44.412v-37.81a44.412 44.412 0 0 1 44.412 -44.412" fill="#008000"/>
   <path d="m127.51 79.353c-6.3506 0-11.424 5.5928-11.424 12.555 0 0-1.5207 32.787 0 34.919-1.3046 0.0367 0.12073 0.10607 0 0.1509-95.121 35.331-114.38 90.314-114.52 188.33-0.04898 34.95-1.0096 58.796 0 91.749 0.7534 24.144 1.892 37.276 22.023 53.118 1.6506 1.2989 0.75557 57.427 0 57.947-14.225 9.783-17.983 25.306-22.023 43.46-6.6528 29.896-1.0425 336.21 0 381.48 1.4924 64.805 24.962 109.77 57.259 108.17 32.358-1.6008 17.18-79.194 44.156-79.194 30.289 0 33.286 79.576 61.554 79.465 38.707-0.1508 39.625-77.145 64.885-77.534 27.124-0.4172 23.396 76.644 63.866 76.387 27.595-0.1754 39.468-35.019 43.027-107.29 2.1179-43.004 8.3052-334.18-4.4046-381.72-4.5863-17.158-9.676-32.155-22.023-43.219-3.3377-2.9907-1.3634-57.024 0-57.947 15.184-16.353 25.196-29.06 26.427-53.118 1.86-36.352 0-56.429 0-91.749 0-88.913-17.282-157.28-114.52-188.33-0.11478-0.03664 0.22023-4.9399 0.22023-7.8771v-27.193c0-6.9624-5.1013-12.555-11.452-12.555h-83.054z" fill="#f00"/>
   <path d="m98.729 79.179h140.6a4.4493 4.4493 0 0 1 4.4493 4.4493 4.4493 4.4493 0 0 1 -4.4493 4.4493h-140.6a4.4493 4.4493 0 0 1 -4.4493 -4.4493 4.4493 4.4493 0 0 1 4.4493 -4.4493" fill="#f00"/>
   <path d="m1.0217 576.99h335.84a1.9715 1.9715 0 0 1 1.9715 1.9715v339.32a1.9715 1.9715 0 0 1 -1.9715 1.9715h-335.84a1.9715 1.9715 0 0 1 -1.9715 -1.9715v-339.32a1.9715 1.9715 0 0 1 1.9715 -1.9715" fill="#e6e6e6"/>
   <path d="m54.185 673.79 3.9976-15.507 10.303 6.0002-3.372 15.871-10.929-6.3646zm-24.071-18.745c9.6606-5.8581 18.347-13.707 26.06-23.546 4.2813-5.4334 10.856-15.02 19.723-28.76l34.948 20.352c-10.828 18.594-18.234 35.064-22.218 49.411-2.0998 7.619-2.1182 12.842-0.05494 15.67l-15.165 6.7964c-6.7122-7.6703-5.8704-21.637 2.5254-41.901 3.4169-8.2245 6.8051-15.221 10.164-20.989l-5.8061-3.3813c-11.738 18.674-25.992 33.596-42.762 44.768l-7.4136-18.421zm74.758 21.337c-1.9316-0.06429-4.1234-0.19396-6.5752-0.38901l-4.0999-16.583c14.139 1.1247 25.118 1.0073 32.936-0.35234 3.3967-0.61061 5.123-1.2666 5.1788-1.9679 0.28891-3.6325-10.335-6.3053-31.873-8.0185l-4.1052-16.516 11.294 0.89838c8.0977 0.64416 13.453 1.1586 16.067 1.5433 6.3994 0.9486 11.551 2.3491 15.456 4.2015 6.9125 3.3692 9.9945 9.7596 9.246 19.171-0.48403 6.0844-5.1421 10.648-13.974 13.69-3.9406 1.3607-8.338 2.3768-13.192 3.0484-0.69639 8.7546-1.733 16.8-3.1097 24.135l-16.152-1.2848c1.3367-6.8545 2.3045-14.047 2.9034-21.576zm56.751 2.4868c-1.9202 0.21979-4.1072 0.41307-6.5611 0.57985l-6.4884-15.802c14.151-0.96185 24.994-2.6887 32.527-5.1805 3.2704-1.1023 4.8818-2.0044 4.8341-2.7064-0.24718-3.6356-11.149-4.7208-32.705-3.2557l-6.4839-15.735 11.304-0.76833c8.1046-0.55081 13.478-0.82766 16.12-0.83056 6.4693-5.1e-4 11.771 0.62898 15.905 1.8885 7.332 2.3186 11.318 8.1877 11.958 17.607 0.41386 6.0896-3.5244 11.287-11.815 15.592-3.6983 1.9241-7.8991 3.5744-12.602 4.9508 0.59553 8.7621 0.75048 16.872 0.46482 24.33l-16.166 1.0988c0.31662-6.9764 0.21882-14.233-0.29339-21.769zm73.26 9.4725c0.24841 2.5442 0.27502 4.0128 0.07981 4.4058l-15.286 2.8314c-0.15989-0.86337-0.25802-1.5154-0.2944-1.956-4.6053 1.6573-7.3784 2.8411-8.3191 3.5515l2.3604-16.916c0.84295-0.51477 2.0001-1.0198 3.4715-1.5152l-0.83977-4.534c-0.64571-3.7204-1.2825-7.3981-1.9105-11.033-1.0121-5.7084-2.0348-10.99-3.0681-15.845-1.2014-5.762-2.4812-10.862-3.8394-15.3l15.932-2.9511c2.6294 10.098 5.7476 24.884 9.3545 44.356l10.808-3.1404c6.8666-1.9856 12.48-3.3822 16.841-4.19l-2.2948 16.904c-1.6808 0.08855-3.4494 0.30475-5.3056 0.64858-3.7565 0.69582-9.653 2.2572-17.689 4.684zm14.841-40.285-0.74658-17.063c5.1688-4.1884 14.68-9.4981 28.533-15.929 5.4206-2.5437 10.379-4.6999 14.876-6.4687l0.72366 17.003c-1.0446-0.02353-2.92 0.48255-5.6263 1.5183-13.247 5.07-25.834 12.05-37.76 20.939zm7.3497 19.757-0.78604-16.98c3.8249-3.1554 10.683-7.1667 20.575-12.034 9.4413-4.6946 17.074-8.1564 22.897-10.385l0.74657 17.063c-1.1988-0.05795-3.1107 0.41535-5.7354 1.4199-7.0527 2.6993-15.706 7.1162-25.96 13.251-4.4433 2.6408-8.3561 5.1957-11.738 7.6648zm7.7688 21.218-0.80894-17.039c3.8227-3.1564 10.68-7.1683 20.572-12.036 9.4571-4.6531 17.097-8.094 22.921-10.323l0.72517 17c-1.1414-0.03229-3.0244 0.45384-5.6492 1.4584-7.0959 2.7158-15.778 7.1199-26.046 13.212-4.4034 2.6255-8.3082 5.2012-11.714 7.7272z" fill="#f00"/>
   <g transform="matrix(.38752 .14861 -.14861 .38752 69.1 739.27)" fill-rule="evenodd">
    <path d="m200.655,2.044c.598.343.525,1.731 1.35,1.535 1.674-.397 3.633-.696 5.265-1.24 2.887-.962 7.472-.935 10.417-.178 3.197.821 6.789,2.133 10.125,2.133 3.645,0 6.886,2.328 9.534,4.601 1.085.931 2.285,3.09 3.604,3.575 1.38.507 2.829.447 4.256,1.031 2.599,1.063 5.963,1.616 8.074,3.52 2.146,1.935 5.071,2.75 7.414,4.529 2.528,1.921 7.694,3.708 8.769,6.955 .826,2.498-.616,6.334-2.406,8.144-2.247,2.271-5.864,3.359-8.663,4.787-3.361,1.715-7.063,3.443-9.821,6.07-2.791,2.659-5.02,5.958-7.556,8.86-4.892,5.6-11.019,9.062-16.909,13.34-1.49,1.083-3.537,1.403-5.256,1.983-1.859.627-3.64,1.498-5.53,2.029-3.664,1.031-7.581,1.381-11.165,2.576 7.764,2.33 15.767,4.18 23.051,7.837 7.247,3.639 14.657,7.895 20.636,13.42 2.826,2.611 5.568,5.395 7.903,8.458 2.565,3.364 4.1,7.318 6.436,10.822 .878,1.315.748,3.012 1.558,4.357 .822,1.366 1.783,2.641 2.229,4.195 1.254,4.374 2.722,8.694 3.646,13.156 3.546,17.111 1.835,34.855-.407,52.017-1.148,8.788-3.287,17.376-5.015,26.058-.798,4.01-1.177,8.117-2.258,12.067-1.125,4.11-2.985,7.996-4.875,11.8-3.663,7.372-7.95,14.433-13.161,20.819-2.566,3.146-5.264,6.199-8.106,9.098-2.693,2.747-5.947,4.924-8.48,7.826-1.116,1.279-1.94,2.587-3.428,3.49-1.352.821-2.848,1.37-4.19,2.208-3.305,2.06-5.891,5.089-9.269,7.067-7.248,4.245-14.412,8.296-22.059,11.799-7.975,3.653-16.153,5.486-24.845,6.344-2.025.199-4.056.358-6.092.399-1.848.037-3.17-.838-5.093-.705-1.822.125-3.537-.715-5.325-.901-2.351-.246-4.709-.423-7.07-.525-4.06-.175-7.521.195-11.47,1.061-3.867.849-8.613.533-12.423-.519-3.567-.984-6.311-2.129-8.605-5.075-2.409-3.095-6.724-2.591-10.301-3.587-7.172-1.999-14.492-4.354-20.86-8.244-1.74-1.062-3.629-1.854-5.351-2.958-1.431-.918-2.602-2.167-3.959-3.181-3.225-2.41-7.284-3.405-10.615-5.684-3.378-2.312-6.577-4.869-9.806-7.382-3.547-2.762-7.356-5.313-10.528-8.52-5.798-5.859-11.155-11.97-16.045-18.605-21.351-28.973-21.562-66.525-11.635-99.846 4.813-16.156 11.982-31.038 22.521-44.229 4.668-5.844 10.795-11.251 17.025-15.381 3.161-2.095 6.518-3.23 9.925-4.785 3.776-1.722 7.013-3.964 11.094-5.012 8.05-2.066 16.489-4.284 24.841-4.5 4.104-.106 8.225.089 12.33.089 2.792,0 5.212-.168 7.923.406 1.437.304 4.389,1.105 5.708.133 1.178-.869-4.109-4.312-4.758-4.834-2.68-2.154-5.819-3.806-8.167-6.354-.724-.786-4.758-6.231-3.762-7.351 .825-.928.513-1.995 1.179-2.972 .73-1.07 2.179-1.496 3.309-1.979 2.892-1.238 6.495-2.577 8.239-5.309 1.181-1.85 5.538-5.676 7.934-4.478 2.588,1.293 6.276,1.021 8.65,2.694 4.95,3.489 3.226,10.595 1.61,15.352-.371,1.093 1.155,2.103 2.091,1.616 1.351-.702 2.556-2.027 3.475-3.21 2.245-2.888 2.992-6.365 4.039-9.789 .99-3.239 2.241-6.404 2.978-9.713 .792-3.563 2.291-5.407 4.534-8.169 2.098-2.583 4.189-5.374 7.43-6.562 3.513-1.288 6.168-1.713 9.091-4.269 5.485-4.797 11.143-9.463 17.848-12.46 3.118-1.392 14.776-6.645 17.223-1.75" fill="#010101"/>
    <path d="m229.155,10.294c-2.483,1.242-5.216,2.217-7.219,4.219-2.164,2.164-4.843,3.684-7.558,5.044-5.308,2.66-10.536,6.281-14.023,11.165-.47.658-.93,2.01-1.87,2.109-1.499.158-2.481.31-3.888.938-2.871,1.283-5.85,1.512-8.789,2.403-6.327,1.918-11.587,5.713-17.403,8.621 1.48-2.962 3.428-5.615 4.91-8.542 .922-1.819 1.215-3.884 2.178-5.689 .872-1.633 2.108-3.022 3.2-4.505 1.876-2.547 2.864-5.623 4.772-8.147 2.281-3.017 4.397-6.001 7.694-7.988 1.396-.842 2.858-1.568 4.319-2.292 1.005-.499 1.189.788 1.906,1.159 1.344.694 3.24-.551 4.597-.7 2.078-.229 3.902.092 5.97-.444 3.509-.909 7.549-.84 11.142-.525 3.56.312 6.724,2.061 10.062,3.174" fill="#009445"/>
    <path d="m190.155,6.544c-1.011,1.01-2.278,1.706-3.343,2.652-1.411,1.256-2.342,2.967-3.598,4.366-2.23,2.486-4.673,4.815-6.556,7.591-1.877,2.766-2.769,5.986-4.437,8.863-1.901,3.28-2.45,6.588-5.069,9.442-2.256,2.457-4.521,5.273-6.149,8.188-1.859,3.329-3.14,6.167-6.349,8.34-2.952,1.998-6.092,3.703-9.039,5.696-1.193.807-2.555,1.878-4.054,1.973-2.062.131-4.126.232-6.157.638 1.325-2.651 4.304-3.253 5.403-6.219 1.436-3.873 2.897-7.736 4.405-11.581 1.447-3.69 2.744-7.484 4.953-10.809 2.304-3.468 5.479-6.222 8.124-9.41 1.157-1.395 2.556.308 3.478-.444 1.067-.871 2.766-.409 3.651-1.452 .408-.481.482-1.296 1.104-1.584 .631-.293 1.169-.279 1.426-1.036 .489-1.445 2.228-1.803 3.369-2.7 2.782-2.187 4.976-4.797 7.944-6.807 3.418-2.309 6.831-4.691 10.894-5.707" fill="#009445"/>
    <path d="m264.405,28.294c-1.53,1.53-2.748,3.864-4.579,5.039-1.704,1.093-4.155.953-6.093.95-2.31-.004-4.411-.686-6.686-.864-2.854-.223-5.725-.349-8.588-.583-2.887-.236-5.822.303-8.673-.376-2.586-.617-5.541-1.039-8.177-1.372-4.554-.575-10.812-.365-14.955,1.707 1.828-5.484 7.265-8.297 11.877-11.245 2.438-1.558 5.315-1.989 7.783-3.364 1.289-.718 3.439-3.625 5.121-2.959 1.367.541 2.951.323 4.377.632 1.506.326 2.953.862 4.404,1.367 2.863.996 5.897,1.523 8.633,2.874 2.591,1.28 5.574,2.353 8.032,3.843 2.515,1.519 4.796,3.44 7.524,4.351" fill="#009445"/>
    <path d="m250.905,37.294c-2.893,1.446-5.721,2.819-8.726,4.018-2.847,1.135-5.45,2.852-8.456,3.576-1.351.326-6.585,3.114-6.793.741-.108-1.225-.74-2.159-.789-3.462-.045-1.208-.277-2.987-1.358-3.755-1.41-1.001-5.073,2.219-5.907,3.224-1.193,1.44-3.248,1.784-4.704.789-1.35-.922-2.575-2.285-4.038-3.017-1.144-.572-2.39-1.025-3.312-1.948s-1.792-1.667-3.167-1.667c3.9-.975 7.831-1.622 11.863-1.514 4.304.115 8.654,1.089 12.912,1.652 3.741.495 7.634,1.312 11.414,1.368 1.826.028 3.656.206 5.432.649 .699.175 1.354-.212 1.973-.457 1.172-.463 2.44-.197 3.656-.197" fill="#009445"/>
    <path d="m211.905,45.544c0,2.38-1.505,3.005-3,4.5-.713.712-1.732.982-2.444,1.694-.831.83-1.104,2.078-2.056,2.806 .183-1.842-1.849-3.143-2.71-4.572-.622-1.032-1.729-2.995-3.195-2.024-2.1,1.39-4.001,3.046-5.807,4.796-.9.873-3.399,4.386-4.688,4.083-1.444-.34-2.791-1.349-4.143-1.945-1.976-.871-4.009-.765-5.973-1.466-1.691-.604-2.562-2.251-4.201-2.905-1.926-.769-4.032-.772-6.034-1.216 3.962-1.981 7.546-4.642 11.568-6.509 2.115-.982 4.333-1.722 6.518-2.53 1.922-.711 3.833-1.855 5.896-2.05 1.983-.188 3.66-1.123 5.589-1.403 1.843-.268 4.184.92 5.764,1.773 1.531.827 2.808,1.735 4.394,2.501 1.88.909 3.086,3.03 4.522,4.467" fill="#009445"/>
    <path d="m127.155,44.794c-.824,2.471-1.137,5.071-1.556,7.631-.364,2.229-2.851,2.209-4.61,2.149-2.792-.095-5.325-1.152-8.051-1.505-2.661-.345-4.982,1.174-6.782,2.975 0-5.733 5.882-3.78 9.218-6.245 .698-.517.853-1.408 1.532-1.941 .957-.75 1.56-1.374 2.364-2.289 1.98-2.253 5.56-2.325 7.885-.775" fill="#754c29"/>
    <path d="m223.905,47.794c1.179,2.357 4.003,3.075 6.447,2.97 1.416-.061 2.724-.589 4.118-.752 1.475-.173 2.957.033 4.435.033-2.147,2.147-3.868,4.68-6.047,6.799-2.518,2.448-5.599,4.463-8.564,6.321-5.942,3.722-12.771,5.466-19.56,6.921-7.502,1.608-15.158,2.193-22.814,1.623-7.844-.583-15.522-2.374-23.265-3.664 1.927-.963 4.58-1.743 6.748-1.421 1.322.197 2.603.998 3.975.748 1.397-.255 2.774-.688 4.184-.953 6.337-1.189 12.222-4.019 17.332-7.924 1.092-.834 6.247-6.891 7.393-6.187 1.711,1.052-.214,3.126.595,4.743 .731,1.462 3.317,1.182 3.274,2.745 2.399.254 4.571-2.732 6.075-4.192 2.024-1.964 4.262-3.267 6.156-5.424 1.6-1.82 3.889-4.385 5.976-5.618 2.713-1.605 2.705,1.559 3.542,3.232" fill="#009445"/>
    <path d="m184.155,58.294c-3.169,1.584-5.623,4.745-9.309,5.204-1.889.235-2.785.717-4.721.233-2.007-.501-4.129-.498-6.176-.292-2.103.211-4.043,1.097-6.002,1.823-1.688.627-2.967,2.032-4.87,2.032-2.138,0-4.304.486-6.423,0-.602-.138-1.169-.691-1.832-.522-1.13.289-2.245.522-3.418.522 3.914-1.566 7.986-2.955 11.526-5.296 3.531-2.336 6.673-5.007 9.807-7.816 3.225-2.892 7.35-1.827 11.059-.59 1.774.592 2.69,2.434 4.358,3.203 1.894.871 4.003.999 6.001,1.499" fill="#009445"/>
    <path d="m128.655,58.294c1.599,3.997 4.321,7.186 5.348,11.427 1.194,4.934 2.178,9.981 2.101,15.079-.076,5.001-.619,9.97-.624,14.987-.004,2.996-.201,7.397-3.872,8.014-2.337.392-6.095-1.072-3.709-3.801 .838-.958 1.49-1.808.396-2.907-.874-.878-1.46-.941-1.574-2.349-.093-1.147-.153-2.142-.794-3.13-2.354-3.627-6.368-5.965-8.797-9.608-2.93-4.395.47-8.595 3.275-11.962 1.874,1.874.955,1.479-.266,3.555-1.013,1.721-1.602,4.25-1.064,6.207 .936,3.411 5.016,5.661 7.956,7.126 3.646,1.818 2.582-3.639 2.382-5.785-.411-4.421-1.679-7.643-4.5-11.041-1.321-1.592-2.874-2.977-4.167-4.589-1.124-1.401-2.129-2.919-3.671-3.894-1.796-1.135-5.813-2.707-6.142-5.14-.172-1.276 1.278-3.153 2.161-3.93 1.747-1.536 3.271.363 5.125.193 1.589-.145 2.218,1.76 3.737,1.577 1.058-.127 1.942.554 2.948.72 1.308.216 2.545-.347 3.751-.749" fill="#603913"/>
    <path d="m114.405,77.044c0,2.113-1.404,4.365-.621,6.46 .829,2.214 1.683,4.505 3.109,6.417 2.064,2.765 5.291,5.566 5.776,9.168 .625,4.644-5.155,3.49-7.869,2.971-5.211-.996-10.358-.025-15.396,1.235 .988,1.977 3.529,1.807 5.374,1.328 3.028-.787 5.072-.814 8.181-.091 3.042.708 6.041,1.411 9.044,2.269 2.565.733 4.862,2.798 7.461,3.173 2.101.303 5.995-.169 7.894-1.101 1.027-.504 2.129-.287 3.219-.553 1.5-.366 3.01-.682 4.512-1.041 2.557-.611 4.906-1.583 7.318-2.601 .788-.332 1.786-.703 2.315-1.421 .487-.662.603-1.688 1.682-1.461-.508-.762-.941-2.26-2.163-1.868-1.538.494-3.777.485-5.121,1.373s-2.774.102-4.198.608c-.651.232-3.029,1.234-3.422-.118-.363-1.256.191-3.202.329-4.464 .247-2.279.537-4.554.758-6.835 .242-2.497-.201-5.185-.657-7.635-.395-2.113-1.654-4.922.776-6.014 2.924-1.313 6.992-1.747 10.168-2.034 4.403-.399 9.072-.119 13.476.19 8.493.597 17.245,1.429 25.617,3 3.987.749 7.681,2.22 11.585,3.228 4.402,1.137 8.468,2.305 12.669,4.081 8.144,3.44 15.449,7.399 22.518,12.749 6.503,4.922 10.908,11.91 14.579,19.078 3.741,7.306 6.403,15.511 8.36,23.487 2.088,8.51.975,17.493.51,26.104-.493,9.137-.65,18.156-1.938,27.242-1.252,8.832-2.506,17.728-4.578,26.411-2.013,8.435-5.016,16.651-8.869,24.419-3.628,7.313-8.587,13.764-13.861,19.955-10.454,12.27-25.851,20.591-40.164,27.513-7.314,3.538-14.867,7.345-23.064,8.181-8.137.83-16.683,2.782-24.882,1.563-3.895-.578-7.571-1.828-11.403-2.561-3.727-.713-7.215,1.651-10.882,1.812-3.691.162-7.978.962-11.592-.087-3.293-.956-3.826-4.896-6.665-6.303-1.292-.641-3.104-.48-4.5-.739-1.938-.358-3.855-.842-5.772-1.296-1.799-.427-3.597-.878-5.296-1.619-1.904-.831-4-1.23-5.855-2.1-7.579-3.55-15.092-7.033-22.191-11.544-14.172-9.007-25.531-21.321-34.775-35.202-4.814-7.229-8.208-14.488-11.035-22.684-2.885-8.361-5.715-16.896-6.942-25.683s-1.009-17.735-.223-26.556c.769-8.631 3.028-16.536 5.982-24.642 5.551-15.231 12.42-29.712 23.426-41.795 5.508-6.047 11.663-11.932 18.784-16.044 6.761-3.905 14.998-7.418 22.824-8.031 2.787-.218 5.328-.998 8.056-1.436 1.474-.237 2.961.059 4.44-.148 1.492-.209 2.759-.733 4.297-.679 6.173.216 13.184-.485 18.895,2.371" fill="#ed1c24"/>
   </g>
   <text transform="scale(1.335 .74907)" x="30.53158" y="989.66376" font-family="Bitstream Vera Sans" font-size="54.981">
    <tspan x="30.53158" y="989.66376">Spritzer</tspan>
   </text>
   <path transform="matrix(1.0756 0 0 1.0756 -38.4 304.53)" d="m226.04 512.81c10.122 22.354 65.59 23.835 77.871-2.0359l5.8967-153.71c-2.3257 24.994-90.306 25.515-93.351-0.59628l9.583 156.34z" fill="url(#o)" fill-rule="evenodd"/>
   <path transform="matrix(1.0756 0 0 1.0756 -38.4 304.53)" d="m225.15 521.96c10.122 22.354 65.59 23.835 77.871-2.0359l5.8967-153.71c-2.3257 24.994-90.306 25.515-93.351-0.59628l9.583 156.34z" fill="url(#n)" fill-rule="evenodd"/>
   <path transform="matrix(1.0756 0 0 1.0756 -38.4 304.53)" d="m225.86 519.74c10.122 22.354 65.59 23.835 77.871-2.0359l5.8967-153.71c-2.3257 24.994-90.306 25.515-93.351-0.59628l9.583 156.34z" fill="url(#m)" fill-rule="evenodd"/>
   <path transform="matrix(1.0756 0 0 1.0756 -38.4 304.53)" d="m261.85 414.98c-33.125 1.3148-40.065 16.977-39.938 24.188s8.8661 19.136 40.719 19.094c3.2874-0.05691 6.1914-0.35426 9.0312-0.6875-2.2611 0.18505-4.4154 0.39059-7.125 0.4375-31.853 0.04241-31.967-8.2897-32.094-15.5s0.10845-25.718 30.969-25.594c30.86-0.23514 32.185 15.446 32.312 22.656 0.07345 4.1624 0.08948 9.4241-5.875 13.281 10.834-5.0561 14.83-12.482 14.75-17-0.12723-7.2103-9.3705-22.19-42.75-20.875z" fill="url(#l)" fill-rule="evenodd"/>
   <path transform="matrix(1.0756 0 0 1.0756 -38.4 304.53)" d="m222.47 439.21c0.12724 7.2103 8.8644 19.129 40.717 19.086 31.853-0.55138 42.117-15.184 41.99-22.394s-9.3734-22.182-42.753-20.868c-33.125 1.3148-40.081 16.965-39.954 24.176z" fill="url(#k)" fill-rule="evenodd"/>
   <path transform="matrix(1.0756 0 0 1.0756 -38.4 304.53)" d="m233.73 442.97c0.12724 7.2103 0.22705 15.53 32.08 15.487 31.853-0.55138 31.32-11.225 31.193-18.436s-1.4558-22.902-32.316-22.667c-30.86-0.12475-31.084 18.405-30.956 25.615z" fill="url(#j)" fill-rule="evenodd"/>
   <path transform="matrix(1.0756 0 0 1.0756 -38.4 304.53)" d="m309.53 364.6c-2.3257 24.994-90.306 25.515-93.351-0.59628-1.4566-23.468 93.026-26.578 93.351 0.59628z" fill="url(#i)" fill-rule="evenodd"/>
   <path transform="matrix(1.0756 0 0 1.0756 -38.4 304.53)" d="m226.04 520.45c10.122 22.354 65.59 23.835 77.871-2.0359l1.3006-24.118c55.587-4.299 73.496 76.1-39.026 77.651-111.5 1.5517-99.882-70.791-42.11-79.266l1.964 27.768z" fill="url(#d)" fill-rule="evenodd"/>
   <path transform="matrix(1.0756 0 0 1.0756 -38.4 304.53)" d="m227.26 506.04 0.76344 10.688c0.21222 2.9711-0.6362 5.7258 3.0538 8.3979 14.378 13.869 51.999 11.112 63.366 1.5269 3.7324-3.9869 6.0226-5.0886 6.362-8.6524l1.5269-14.505c-8.1434-1.1876-19.044 9.5006-37.409 9.6703-18.874 0.16966-25.109-9.1614-37.663-7.1255z" fill="url(#h)" fill-rule="evenodd"/>
   <g transform="matrix(1.0756 0 0 1.0756 69.996 264.89)" fill-rule="evenodd">
    <path d="m199.77 548.69c-13.488 14.93-49.878 22.225-73.8 2.0359 7.2952 20.019 64.299 25.024 73.8-2.0359z" fill="url(#g)"/>
    <path d="m200.46 547.49c-2.3816 2.027-4.748 4.0826-7.151 6.0778-2.7081 1.4673-5.4609 2.844-8.2746 4.0978-2.249 1.1323-4.7233 1.693-7.0857 2.5376-1.2454 0.4451-2.5012 0.83677-3.8256 0.94831-2.8325 0.39853-5.6561 0.92291-8.4943 1.242-3.4749-0.05416-6.9586-0.01616-10.428-0.12711-2.7549-0.53333-5.5379-0.95748-8.2754-1.5588-2.3618-0.82867-4.7815-1.5095-7.1057-2.434-1.8147-0.86165-3.7071-1.6016-5.4742-2.5362-2.849-1.8787-5.6841-3.8037-8.5418-5.6537-0.76002-0.44156-0.47065 0.59367-0.21808 0.95322 0.67206 1.2704 1.4369 2.5605 2.1868 3.7655 1.3527 1.3357 2.6792 2.7549 4.0462 4.0409 1.6576 0.95548 3.2513 2.0546 4.9486 2.9203 2.3855 0.97836 4.7289 2.085 7.1408 2.9831 2.8354 0.64903 5.6566 1.3889 8.5009 1.9819 2.7387 0.23596 5.4698 0.62416 8.2135 0.76135 2.8011-0.05814 5.617 0.16647 8.4006-0.22861 2.2372-0.23229 4.4832-0.40051 6.6739-0.93754 1.7156-0.30226 3.4102-0.68488 5.0451-1.2956 2.2901-0.67567 4.5061-1.5528 6.6997-2.4906 1.3635-0.46591 2.3736-1.5693 3.5679-2.3457 1.2368-0.94932 2.5925-1.7402 3.5651-2.9723 1.005-1.1107 2.1387-2.0854 2.8435-3.4196 0.80247-1.1864 1.5492-2.3906 2.0678-3.7299 0.39638-0.93731 0.89558-1.836 1.2239-2.7988l-0.25 0.21875z" fill="url(#f)"/>
   </g>
   <path transform="matrix(1.0756 0 0 .27281 131.32 710.85)" d="m156.19 541.32a49.665 49.665 0 1 1 -99.33 0 49.665 49.665 0 1 1 99.33 0z" fill="url(#c)" fill-rule="evenodd"/>
  </g>
  <path d="m92.603 150.36s72.048 52.427 69.191 136.52c-97.124 165.48-92.524 56.45-129.19 140.62-1.2399 0-2.238-0.99815-2.238-2.238-17.485 5.2455-24.933-232.84 62.238-274.9z" fill="url(#e)"/>
 </g>
</svg>
