<?xml version="1.0" encoding="UTF-8"?>
<svg enable-background="new" viewBox="0 0 344.08002 588.74487" xmlns="http://www.w3.org/2000/svg" xmlns:xlink="http://www.w3.org/1999/xlink">
 <defs>
  <filter id="y">
   <feGaussianBlur stdDeviation="5.3741"/>
  </filter>
  <filter id="v">
   <feGaussianBlur stdDeviation="3.0598"/>
  </filter>
  <filter id="n">
   <feBlend in2="BackgroundImage" mode="darken"/>
  </filter>
  <filter id="x" x="-.17083" y="-.01291" width="1.3417" height="1.0258">
   <feGaussianBlur stdDeviation="2.5598"/>
  </filter>
  <filter id="w" x="-.14651" y="-.01307" width="1.293" height="1.0261">
   <feGaussianBlur stdDeviation="2.3787"/>
  </filter>
  <filter id="u" x="-.13184" y="-.01642" width="1.2637" height="1.0328">
   <feGaussianBlur stdDeviation="3.0598"/>
  </filter>
  <filter id="d" x="-.51789" y="-.03363" width="2.0358" height="1.0673">
   <feGaussianBlur stdDeviation="6.1034"/>
  </filter>
  <filter id="t" x="-.30538" y="-.01913" width="1.6108" height="1.0382">
   <feGaussianBlur stdDeviation="3.7697"/>
  </filter>
  <filter id="c" x="-.04421" y="-.62596" width="1.0884" height="2.2519">
   <feGaussianBlur stdDeviation="4.716"/>
  </filter>
  <filter id="s" x="-.04328" y="-.78526" width="1.0866" height="2.5705">
   <feGaussianBlur stdDeviation="4.5807"/>
  </filter>
  <filter id="r" x="-.03325" y="-.3067" width="1.0665" height="1.6134">
   <feGaussianBlur stdDeviation="3.021"/>
  </filter>
  <filter id="q" x="-.19193" y="-.10535" width="1.3839" height="1.2107">
   <feGaussianBlur stdDeviation="2.7124"/>
  </filter>
  <filter id="p" x="-.10508" y="-.05476" width="1.2102" height="1.1095">
   <feGaussianBlur stdDeviation="12.2156"/>
  </filter>
  <filter id="o" x="-.07056" y="-.4008" width="1.1411" height="1.8016">
   <feGaussianBlur stdDeviation="8.35"/>
  </filter>
  <linearGradient id="a">
   <stop offset="0"/>
   <stop stop-opacity="0" offset="1"/>
  </linearGradient>
  <linearGradient id="b">
   <stop stop-color="#fff" offset="0"/>
   <stop stop-color="#fff" stop-opacity="0" offset="1"/>
  </linearGradient>
  <linearGradient id="l" x2="0" y1="612" y2="196.98" gradientUnits="userSpaceOnUse">
   <stop offset="0"/>
   <stop stop-opacity=".6861" offset="1"/>
  </linearGradient>
  <linearGradient id="j" x1="234.36" x2="237.36" y1="502" y2="170.96" gradientUnits="userSpaceOnUse">
   <stop stop-opacity=".6642" offset="0"/>
   <stop stop-opacity="0" offset="1"/>
  </linearGradient>
  <linearGradient id="f" x2="0" y1="632.69" y2="100.43" gradientUnits="userSpaceOnUse">
   <stop stop-color="#858585" offset="0"/>
   <stop stop-color="#e3e3e3" offset=".0257"/>
   <stop stop-color="#d4d4d4" offset=".8721"/>
   <stop stop-color="#c2c2c2" offset=".8871"/>
   <stop stop-color="#c7c7c7" offset=".9491"/>
   <stop stop-color="#e2e2e2" offset=".967"/>
   <stop stop-color="#ebebeb" offset="1"/>
  </linearGradient>
  <linearGradient id="m" x1="79.05" x2="359.05" gradientUnits="userSpaceOnUse">
   <stop stop-color="#666" offset="0"/>
   <stop stop-color="#848484" offset=".125"/>
   <stop stop-color="#bfbfbf" offset=".1893"/>
   <stop stop-color="#f4f4f4" offset=".375"/>
   <stop stop-color="#c9c9c9" offset=".5"/>
   <stop stop-color="#dedede" offset=".625"/>
   <stop stop-color="#f8f8f8" offset=".7143"/>
   <stop stop-color="#b4b4b4" offset=".8446"/>
   <stop stop-color="#717171" offset=".875"/>
   <stop stop-color="#666" offset="1"/>
  </linearGradient>
  <linearGradient id="k" x2="0" y1="228.91" y2="50.389" gradientUnits="userSpaceOnUse" xlink:href="#a"/>
  <linearGradient id="i" x1="179.39" x2="178.48" y1="431.81" y2="147.55" gradientUnits="userSpaceOnUse" xlink:href="#b"/>
  <linearGradient id="h" x1="268.89" x2="266.19" y1="270.31" y2="172.73" gradientUnits="userSpaceOnUse" xlink:href="#b"/>
  <linearGradient id="g" x1="82.497" x2="140.08" gradientUnits="userSpaceOnUse" xlink:href="#a"/>
  <radialGradient id="e" cx="-1384" cy="343.05" r="129.5" gradientTransform="matrix(-1.2471 0 0 -.12801 -1503.6 661.15)" gradientUnits="userSpaceOnUse">
   <stop stop-color="#767676" offset="0"/>
   <stop stop-color="#7b7b7b" offset=".8597"/>
   <stop stop-color="#515151" offset="1"/>
  </radialGradient>
 </defs>
 <g transform="translate(-46.96,-89.309)">
  <path d="m79.5 173.69s28.237-44.232 27-54c-1.0054-7.9366-3.4907-13.408 3.591-16 6.4414-2.3572 81.409-4.3484 108.41-4.3484s104.35-0.65165 111.35 4.3484 1.4801 8 1.4801 16c0 7.2801 27.172 54 27.172 54v419s-3.7388 9.6476-17.574 15.894c-9.1843 4.1468-13.897 9.8065-14.376 13.53-4.5863 12.775-70.282 12.093-108.05 12.575-17 0-97.823 0.12132-102.59-9.8839-3.2762-6.8751-5.6892-10.383-9.1768-12.525-6.7463-4.1434-27.232-14.589-27.232-19.591v-419z" filter="url(#p)" opacity=".3" stroke="#000"/>
  <path d="m78.864 173.69c0-19 28.237-44.232 27-54-1.0054-7.9366-3.4907-13.408 3.591-16 6.4414-2.3572 81.409-4.3484 108.41-4.3484s104.35-0.65165 111.35 4.3484 6.0923 8.0114 1.4801 16 27.136 38.299 27.172 54 0 279.33 0 419c0 0-3.7388 9.6476-17.574 15.894-9.1843 4.1468-13.897 9.8065-14.376 13.53-4.5863 12.775-70.282 12.093-108.05 12.575-17 0-97.823 0.12132-102.59-9.8839-3.2762-6.8751-5.6892-10.383-9.1768-12.525-6.7463-4.1434-27.232-14.589-27.232-19.591v-419z" fill="url(#f)"/>
  <path d="m134.17 164.17s-8.4852 436.99 1e-4 438.41 73.539 4.2426 73.539 4.2426 16.971-434.16 2.8284-439.82-76.368-2.8284-76.368-2.8284z" fill="url(#i)" filter="url(#v)" opacity=".2099"/>
  <path d="m238.82 168.41s-7.0711 434.16 5.6568 435.58 36.77-4.2426 48.083-2.8284c-4.7124-64.549-5.4363-320.8-5.6569-444.06-20.066-0.19527-32.77-0.93678-48.083 11.314z" fill="url(#h)" filter="url(#u)" opacity=".2099"/>
  <path d="m305.29 165.58a14.142 10.101 0 0 1 14.142 10.1v415.38a14.142 10.101 0 0 1 -14.142 10.1 14.142 10.101 0 0 1 -14.142 -10.1v-415.38a14.142 10.101 0 0 1 14.142 -10.1" filter="url(#d)" opacity=".0658"/>
  <path d="m111.29 165.58a14.142 10.101 0 0 1 14.142 10.1v415.38a14.142 10.101 0 0 1 -14.142 10.1 14.142 10.101 0 0 1 -14.142 -10.1v-415.38a14.142 10.101 0 0 1 14.142 -10.1" fill="url(#g)" filter="url(#d)" opacity=".0658"/>
  <path transform="matrix(1 0 0 .75119 -21 151.96)" d="m382 642a142 25 0 1 1 -284 0 142 25 0 1 1 284 0z" filter="url(#o)" opacity=".3"/>
  <path d="m351.86 601.78c-18.291 7.9839-70.536 13.719-132.5 13.719-56.169 0-104.35-4.7026-126.5-11.531 5.4567 3.3275 11.198 6.4574 14.219 8.3126 3.4874 2.1417 5.9114 5.6561 9.1874 12.531 4.7681 10.005 85.594 9.875 102.59 9.875 37.769-0.4819 103.48 0.213 108.06-12.562 0.4784-3.7236 5.1907-9.3842 14.375-13.531 4.5496-2.0539 7.9704-4.487 10.562-6.8124z" fill="url(#e)"/>
  <path d="m209.36 173s-9 432-3 434 32 4 35-3 3-429-4-431-28 0-28 0z" fill="url(#j)" filter="url(#w)" opacity=".1067"/>
  <path d="m90.364 596s34 8 45 9 92 8 104 5 93-10 98-12 10-8 10-14 1-406-2-414 3-14 5 0 7 419 3 423-22 14-26 13-170 10-198 4-47-16-39-14z" fill="url(#l)" filter="url(#y)" opacity=".8"/>
  <path d="m99.364 600s-8-413-3-429l5-16s10.404-22.414 12.404-27.414 2.3536-9.5962 2.3536-9.5962-25.757 43.01-29.757 56.01c-4.5654 14.838-3 418-1 419s5 7 14 7z" fill="url(#k)" filter="url(#x)" opacity=".25" stroke="#000"/>
  <g transform="matrix(1.0082 0 0 1 -1.8592 0)">
   <path d="m246.36 99.315c-11.158-0.017-21.062 0.0312-27.812 0.0312-27 0-101.96 1.9866-108.41 4.3438-6.1659 2.2562-5.079 6.6832-4.0313 13.031 0.7083-1.2517 1.9463-2.2683 4.0313-3.0312 6.4411-2.3572 81.406-4.3438 108.41-4.3438s104.34-0.65625 111.34 4.3438c0.8427 0.60268 1.4876 1.1619 2 1.7188 1.1902-5.0126 3.5928-7.7235-2-11.719-5.2511-3.75-50.058-4.3239-83.531-4.375z" fill="url(#m)"/>
   <path d="m246.33 107.31c-11.157-0.0166-21.031 0.0312-27.781 0.0312-27 0-101.97 1.9866-108.41 4.3438-2.0849 0.76297-3.3229 1.7796-4.0312 3.0312-0.3169-1.9204-0.659-3.6569-0.7812-5.2188-0.1373 2.021 0.3228 4.4415 0.7812 7.2188 0.7083-1.2517 1.9463-2.2683 4.0312-3.0312 6.4412-2.3572 81.406-4.3438 108.41-4.3438s104.34-0.65625 111.34 4.3438c0.8427 0.60268 1.4876 1.1619 2 1.7188 0.7226-3.0431 1.8815-5.2262 1.4376-7.375-0.2435 1.5626-0.9362 3.2636-1.4376 5.375-0.5124-0.55682-1.1573-1.1161-2-1.7188-5.25-3.75-50.091-4.3252-83.562-4.375z" opacity=".5885"/>
   <path d="m246.36 99.312c-11.157-0.0166-21.062 0.0312-27.812 0.0312-27 0-101.97 1.9866-108.41 4.3438-2.0849 0.76297-3.3229 1.7796-4.0312 3.0312 0 0-0.5919 0.41041 0 1 0.7083-1.2517 1.9463-2.2683 4.0312-3.0312 6.4412-2.3572 81.406-4.3438 108.41-4.3438s104.34-0.65625 111.34 4.3438c0.8427 0.60268 1.4876 1.1619 2 1.7188 0.4084 0.14348-0.2021-1.1499 0-1-0.5124-0.55682-1.1573-1.1161-2-1.7188-5.25-3.75-50.06-4.3252-83.531-4.375z" opacity=".5885"/>
  </g>
  <path d="m82.864 170.69s28.237-44.232 27-54c-49.385 101.37-20.492 61.102-27 473v-419z" fill="none" filter="url(#t)" opacity=".514" stroke="#000" stroke-width="2"/>
  <path d="m84.364 599s83 11 126 11 127-9 128-14 2-4 2-4" fill="none" filter="url(#c)" stroke="#000" stroke-width="3"/>
  <path transform="matrix(.71146 0 0 .53374 1214.9 443.27)" d="m-1522 328s83 11 126 11 127-9 128-14" fill="none" filter="url(#s)" stroke="#000"/>
  <path transform="matrix(1 0 0 -1 1616.4 308.24)" d="m-1522 137s-5.5966 10 126 10 122-12 122-12" fill="none" filter="url(#c)" opacity=".3868" stroke="#000" stroke-width="3"/>
  <path transform="matrix(1.009 0 0 1 1619.8 283)" d="m-1492-156s-9.2725 9.7574-3.2725 9.7574 210-1.2929 214 2.7071-0.7008-12.464-6.7008-12.464-92-7-116-7-83.027 3-88.027 7z" filter="url(#r)" opacity=".0969"/>
  <path d="m319.36 113s1 18 5 24 11 27 17 33 6 4 6 4 10 4 4-6-18-37-22-43-1-9-1-9z" filter="url(#q)" opacity=".1193"/>
 </g>
 <g transform="translate(-46.96,-89.309)" filter="url(#n)">
  <path d="m219,265.51419c-56.05135,0-101.5,45.4174-101.5,101.46875s45.44865,101.5 101.5,101.5 101.5-45.44865 101.5-101.5-45.44865-101.46875-101.5-101.46875zm-2.0625,12.03125c.20442.0255.48069.1865.84375.46875l.8125.625-.78125.625c-1.02188.79521-.64475,1.34375.90625,1.34375 .67646,0 1.41713.18022 1.65625.40625 .35931.33965.35826.29089.0312-.34375-.21761-.42233-.34634-.80991-.28125-.875 .26311-.26311 1.04539.46529 1.09375,1.03125 .0285.33305.30416,1.10789.625,1.71875 1.74148,3.3158 1.79802,5.4611.21875,9.40625-.72543,1.81219-.97922,3.03174-1.125,5.75-.18333,3.41845-.62979,5.05968-1.6875,5.9375-.26748.22199-.49889.77486-.5,1.25s-.22332,1.31317-.5,1.84375-.41559,1.20012-.3125,1.46875-.002.58441-.21875.71875-.47731.99856-.59375,1.90625c-.17806,1.38797-.12716,1.65812.34375,1.78125 .46274.12101.51962.42609.375,1.75-.0963.881-.37931,1.7304-.625,1.875s-.44322.5709-.4375.96875c.0102.68927.0546.67883.84375-.21875 .82837-.94204 1.59143-1.00098.8125-.0625-.50098.60366-.22357,1.5.46875,1.5 .8207,0 .6124,1.82093-.46875,4-.9006,1.81516-.96835,2.09128-.625,3.375 .4861,1.81754.18976,2.95687-1.1875,4.375-.61635.63463-1.20559,1.32384-1.28125,1.53125-.10025.27479-.30998.25354-.84375-.0625-.82472-.48835-1.34547-.25173-.75.34375 .21398.21397.40625.57743.40625.8125 0,.52488-.71775.5635-1.21875.0625-.26616-.26618-.28476-.59967-.0312-1.15625 .37766-.82887-.0847-1.78125-.875-1.78125-.22107,0-.65466-.27795-.96875-.625-.47005-.51939-.53392-.95347-.34375-2.53125 .12709-1.05435.43808-2.42145.6875-3.03125 .39328-.96153.51535-1.06381.96875-.6875 .47791.39661.47793.46302 0,.8125-.28758.21026-.53125.57514-.53125.78125 0,.46186.87769.48203 1.15625.0312 .11171-.18083.73884-.34095 1.40625-.34375 1.55366-.007 1.90932-.24863 2.1875-1.53125 .27155-1.25199-.41235-1.73047-2.46875-1.8125-1.3555-.0541-1.39301-.13202-1.4375-1.75-.0239-.87069-.1293-.96875-1-.96875-.90412,0-1.00557.10696-1.15625,1.3125-.14724,1.17783-.27289,1.32224-1.15625,1.40625-.54248.0516-1.31217.26388-1.71875.46875s-.80677.28699-.90625.1875c-.3681-.36809.25517-1.84607.84375-2 .45149-.11806.5919-.43077.5625-1.25-.0218-.6076.15012-1.84294.40625-2.71875 .43767-1.49661.45265-1.61725-.15625-2.0625-.57277-.41884-.69577-.4078-1.0625.0937-.47822.65403-.55447.37071-.125-.46875 .16064-.31401.45772-1.42659.65625-2.5 .48811-2.63919.73969-2.84198 2.09375-1.40625 1.23432,1.30874 1.75297,1.44925 2.71875.71875 .351-.26549.95003-.49425 1.34375-.5 1.04908-.0154 2.09375-1.49434 2.09375-3 0-1.12808-.1-1.28125-.8125-1.28125-1.082,0-1.35682-.53837-.65625-1.3125 .55002-.60776.56286-.68729-.0312-1.34375-.4767-.52676-.88593-.63516-1.71875-.5-.87131.14141-1.27735-.0211-2.09375-.75-.93366-.83423-1.02513-1.07076-1.0625-3.0625-.0434-2.31358-.29579-2.92296-.9375-2.28125-.29007.29004-.28989.55449-.0312.96875 .38995.6244.10929,3.53444-.40625,4.34375-.56607.88865-1.08089,2.70113-.90625,3.15625 .10116.26361-.18315.61397-.6875.84375-.89699.40869-.97.55229-.875,2 .0323.4932-.0429,1.08239-.1875,1.3125s-.29982.86377-.34375,1.40625c-.20002,2.46991-.52985,4.09375-.8125,4.09375-.16947,0-.2708-.40899-.21875-.90625 .084-.8032-.0195-.90846-.96875-1-.78576-.0757-1.0625.0354-1.0625.40625 0,.37626-.2986.49151-1.21875.4375-1.15463-.0678-1.25124-.01-1.34375.9375-.12801,1.31092.87834,2.56629 2.125,2.65625l1.15625.0937c.18464.023.53215,1.33001 1.125,4.21875 .1164.56716-.006.71875-.5.71875-.74526,0-1.17785.54069-.6875.84375 .56536.34938.36981.72701-.46875.9375-.44001.11046-.90757.51659-1.03125.90625-.2826.89042.90379,1.89563 2.25,1.90625 .79283.006.90802.12234.71875.71875-.12163.38318-.0368,1.04969.1875,1.46875 .33915.63371.31049.84576-.125,1.28125-.28797.28797-.44581.73398-.34375,1 .22035.57417-.0142.60242-.90625.125-.78751-.42145-1.9375-2.93192-1.9375-4.25 0-.54633-.20654-1.06829-.53125-1.25-.45938-.2571-.51473-.47541-.21875-1.125 .36722-.80599.0408-1.90625-.5625-1.90625-.47712,0-.75517,2.25431-.34375,2.75 .536.64588.87386,5.33599.40625,5.625-.2173.1343-.375.0172-.375-.28125 0-.31089-.30134-.52819-.75-.53125-1.06343-.007-1.36932-.30409-1.875-1.875-.31149-.96757-.61669-1.40625-1.03125-1.40625-.34893,0-.70287-.31321-.8125-.75-.10343-.41217-.61923-.94977-1.15625-1.1875s-1.17421-.83457-1.4375-1.34375-.67641-.9805-.90625-1.0625-.30763-.27641-.1875-.40625 .52727-.0633.9375.15625c.64444.34493.83775.31236 1.34375-.3125l.59375-.71875 .1875.9375c.10785.50934.33009,1.15473.5,1.46875s.3125.82004.3125,1.09375c0,.30839.31514.5.8125.5 1.03455,0 1.36226-.57735.75-1.28125-.26533-.30504-.5673-.94022-.65625-1.4375-.15357-.85858-.0847-.90625 1.125-.90625 .70068,0 1.55157.18475 1.90625.40625 1.03942.64912 1.44253-.0668.84375-1.5-.61095-1.46222-1.43479-1.93721-3.46875-2-1.1876-.0366-1.62319-.17582-1.84375-.65625-.43803-.95417-1.32768-1.42231-1.8125-.9375-.31453.31453-.28034.64693.15625,1.5625 .30559.64082.53125,1.29747.53125,1.4375s-.75738.23986-1.6875.21875c-1.37424-.0312-1.7174.0481-1.84375.53125-.21284.81395-1.29285.76042-1.75-.0937-.37005-.69143-.15079-1.02617.84375-1.375 .1689-.0592.0546-.73895-.25-1.5s-.5625-1.64228-.5625-1.96875-.36044-.9503-.8125-1.375-.8125-.98726-.8125-1.28125c0-.75483-.68591-1.34375-1.5625-1.34375-.64995,0-.69691-.10919-.53125-.9375 .20033-1.00161.14741-1.03774-1.9375-1.5-1.05953-.23495-2.875-1.72329-2.875-2.34375 0-1.29238-3.28668-3.36379-4.65625-2.9375-.65656.20433-1.01685-.21157-2.25-2.65625-.89078-1.76601-.9507-2.05023-.625-3.34375 .30031-1.19263.26951-1.52626-.1875-2.03125-.56878-.62849-.38339-1.65625.28125-1.65625 .21128,0 1.2634.43193 2.34375.96875s2.15328.96306 2.40625.96875 .97647-.48941 1.59375-1.125c1.32069-1.35987 1.24562-2.32238-.25-2.84375-1.15281-.40186-1.23218-.99458-.21875-2 .41747-.41416 1.17269-1.27551 1.65625-1.9375 .65756-.90018 1.02717-1.16305 1.53125-1.03125 .38252.10003.94571-.0713 1.28125-.375 .32517-.29429.66973-.42405.78125-.3125s.90409-.18345 1.75-.65625c1.09363-.61122 2.02086-.87114 3.21875-.875 2.21983-.007 4.25861-1.10356 4.40625-2.375 .0832-.71722.28902-.90625.96875-.90625 .53218,0 1.26269-.43018 1.9375-1.125 1.07883-1.11082 3.83174-2.8125 4.53125-2.8125 .20496,0 .56315.27578.78125.625 .3424.5483.63909.59844 2.28125.4375 1.04596-.10252 2.08307-.31872 2.3125-.5 .29253-.23113.63602-.16422 1.09375.25 .5792.5242.79257.55395 2.03125.1875 .76776-.22714 1.65477-.55555 1.96875-.71875 1.00733-.52357 2.12705-.33416 2.3125.375 .10978.41961.44579.65339.9375.65625 .42378.003 1.12439.0785 1.53125.1875 .62598.16777.71875.0865.71875-.625s.1593-1.04249.5-1zm16.28125.125c.37033,0 1.00807.35327 1.40625.78125s1.49985,1.083 2.4375,1.46875c2.81099,1.15645 5.03125.81609 5.03125-.78125 0-.44568.12873-.8125.28125-.8125 .72141,0 4.06091,1.35085 5.03125,2.03125 .59862.41974 1.13876.76201 1.1875.78125s-.42114.61232-1.0625,1.3125l-1.1875,1.28125 .75.5625c.41178.31694.98694.58975 1.28125.59375s.71239.22876.9375.5c.44761.53936 2.20809.64936 2.9375.1875 .2705-.17125.37849-.50889.25-.84375-.249-.64889.31188-1.5 1-1.5 .25519,0 .75158.52336 1.125,1.15625s.86294,1.15625 1.0625,1.15625 .82166.46465 1.40625,1.03125 1.42519,1.08179 1.84375,1.125l1.25.125c.39916.038.38792.0865.0312.3125-.47183.2991-1.10063,1.32491-1.65625,2.65625-.18867.45206-.50675,1.09225-.6875,1.40625-.4645.80691-.41654,1.54218.125,1.75 .61471.23589 3.15625-1.37121 3.15625-2 0-.96165.81985-3.125 1.1875-3.125 .20506,0 .55615.22875.78125.5 .34194.41201.30174.5-.28125.5-.40108,0-.6875.21653-.6875.5 0,.71854 1.57124.63189 1.71875-.0937 .0996-.48961.22578-.44777.96875.34375 .48017.51158.97882,1.38294 1.09375,1.90625 .3046,1.38683 1.82282,2.48495 3.75,2.75 .90255.12411 1.80343.41941 2,.65625s.61672.36515.9375.28125c.54941-.14367 1.44307.69434 3.90625,3.65625 .79276.95327.93628,1.5.40625,1.5-.75943,0-.23472.69681.65625.875 1.36537.27307 2.10105,1.23594 2.125,2.75 .0113.70771.21147,1.46153.4375,1.6875 .63719.63696.47157,1.54714-.34375,1.96875-.40686.21038-1.01334.72183-1.375,1.15625s-1.11378.87866-1.65625.96875-1.19752.23101-1.46875.34375-1.40982.2119-2.53125.1875-2.14017.0723-2.25.25c-.14634.23677-.30902.34001-.46875.3125h-.0312c-.16791-.0472-.33605-.24633-.40625-.5625s.16271-.97605.5-1.46875c.67536-.98652.54-2.87558-.25-3.53125-.60075-.49855-2.6142.0449-2.75.75-.13408.69628.89177.75166 1.15625.0625 .10411-.27123.40436-.5.65625-.5 .79923,0 .49169.83321-.53125,1.4375-1.15517.68237-1.27302,1.39691-.28125,1.65625 .67809.17734.65873.21626-.3125,1.1875-.55301.55299-1.15159,1-1.3125,1s-.71209.43991-1.21875.96875c-.5155.53807-1.1133.88168-1.375.78125-.54683-.20982-1.75.7794-1.75,1.4375 0,.74043 1.35459,1.09008 2.1875.5625 .95325-.60382 1.49599-.60219 2.71875.0937 .71252.40554.99853.8466 1,1.4375 .002,1.00216-.56526,1.62575-1.21875,1.375-.28691-.11012-.52499.0862-.625.46875-.17866.68319-2.27305,1.37148-4.5,1.5-.7985.046-1.38907.29048-1.59375.65625-.61852,1.1053-2.35207.50353-2.625-.90625-.10173-.52574-1.05928-1.28769-2.5-2-.58259-.28801-1.40625.0987-1.40625.65625 0,.25904.52337.75157 1.15625,1.125 1.92683,1.13686 1.67558,1.3461-2.5,1.875-1.1342.14367-1.62246.0671-1.9375-.3125-.67544-.81384.41637,1.12067-.59375,2.71875-1.17288,1.85552-4.30617,1.08661-5.1875.46875-.52532-.36827-.47317-1.73194.0625-1.9375 .26073-.10002.46875-.44387.46875-.75 0-.76279.65274-1.34375 1.5-1.34375 1.17328,0 2.67448-.97221 3.40625-2.15625 .38011-.61504.98614-1.17768 1.3125-1.28125s1.53103-1.07531 2.6875-2.15625 2.45419-2.06686 2.90625-2.1875 1.43295-.48488 2.15625-.8125 1.67294-.61366 2.125-.625 1.72755-.441 2.8125-.96875l1.96875-.96875h-2.71875c-2.57371-.0125-2.84389.0282-5,1.25-1.2544.71082-2.62827,1.62457-3.03125,2s-1.21795.80456-1.8125.96875-1.45821.62295-1.9375,1-1.06342.65625-1.28125.65625-.57528.39169-.78125.84375c-.21654.47524-.62235.8125-1,.8125-.35924,0-1.1634.45753-1.78125,1s-1.23798.96875-1.375.96875-.43408.25868-.65625.5625c-.37152.50808-.44156.47845-.78125-.15625-.20312-.37954-.82658-.78583-1.375-.90625-.76442-.16791-.98289-.36056-.9375-.90625 .12644-1.52025.012-1.78859-.84375-1.625-1.43168.27368-2.76306-.5183-3-1.78125-.22506-1.19966.36105-3.05258 1.09375-3.5 .60651-.3704 1.42968-2.43949 1.375-3.46875-.0251-.47277.0451-1.16961.1875-1.53125 .20251-.51424.0297-.44269-.78125.3125-.57038.5311-1.03125,1.21407-1.03125,1.53125s-.13168.6695-.3125.78125-.34375.84131-.34375,1.625c0,.93684-.15752,1.50556-.46875,1.625-.28203.1082-.50175.73935-.5625,1.5625-.0611.82758-.29836,1.45704-.59375,1.59375-1.67706.77606-1.8125.94166-1.8125,2.03125 0,.90587.11769,1.13336.71875,1.21875 .40686.0577.75.22878.75.40625s.52336.54804 1.15625.8125 1.15625.60998 1.15625.75-.42638.73155-.9375,1.34375c-1.0028,1.20121-2.03125,1.23981-2.03125.0625 0-.35342-.3586-1.05135-.78125-1.5625-.57558-.69603-.74582-1.29347-.6875-2.3125 .0767-1.34006.0794-1.3649-1.15625-1.5625-1.62969-.26059-3.09589-1.10185-3.71875-2.15625-.99861-1.69052-.6879-6.43261.59375-8.875 .23722-.45206.59911-1.30041.8125-1.875s.68612-1.31267 1.03125-1.625 .625-.7281.625-.9375 .4112-.77701.9375-1.28125c.9376-.89824.99281-.90574 1.34375-.25 .44015.82243.46101,3.65625.0312,3.65625-.17162,0-.70003.51716-1.1875,1.15625-.76312,1.0005-.85187,1.29633-.53125,2 .2048.44946.76446.95226 1.21875,1.125s.8125.55904.8125.84375c0,.82578.95108,2.4375 1.4375,2.4375 .7937,0 1.34733-1.05724 1.40625-2.6875 .0465-1.28523-.0718-1.67505-.625-2.0625-.62244-.43599-.65779-.59751-.3125-1.75 .30085-1.00413.5381-1.27091 1.125-1.25 .61395.022.75448-.15521.84375-1.09375 .0735-.77307-.0359-1.29172-.40625-1.5625-.3963-.28978-.51573-.77516-.4375-1.8125l.0937-1.40625-1.96875.0625c-1.13508.039-2.0593-.10511-2.1875-.3125-.12391-.20049-.5769-.27031-1.03125-.15625-.64423.16168-.77558.37579-.65625,1 .13281.69477.0113.81579-1.03125.9375s-1.1875.0341-1.1875-.59375c0-.93984-.44955-1.2604-2.71875-1.96875-1.76053-.54951-1.87136-.65457-1.875-1.59375-.002-.55464-.18237-1.75213-.40625-2.65625-.44887-1.81269-.48389-3.46782-.0937-6.8125 .20547-1.76146.3718-2.21875.8125-2.21875 .8663,0 1.04342-.39623.46875-1.03125-.7182-.7936-.30317-1.37284.59375-.84375 .54417.32101.72557.29538.84375-.0312 .23252-.64205.92589-.4689 1.46875.34375 .47327.70851.54295.70731 1.15625.15625 .35219-.31644.81378-.5625 1.03125-.5625s.49006-.22982.59375-.5 .29809-.41797.46875-.3125c.18455.11406.17339.40335-.0625.6875-.28177.33953-.31259.5624-.0625.8125 .45657.45656 1.1666.0347.9375-.5625-.10184-.26539.0339-.46875.3125-.46875 .61235,0 .61227-.34678 0-1.15625-.65986-.87243-.63448-1.125.15625-1.125zm-34,1.65625c-.43583.006-.81506.36735-.65625.78125 .2455.63973 1.4375.66551 1.4375.0312 0-.26058-.15426-.5704-.34375-.6875-.13945-.0862-.29222-.12712-.4375-.125zm2.84375,3.3125c-.38019-.005-.81568.016-1.28125.0312-2.85858.0938-2.90625.0987-2.90625.90625 0,.60209.20814.86054.75.9375 .52311.0743.71875.30713.71875.84375 0,.41734.2242.95861.5,1.1875 .44852.37224.4707.47985 0,1-.48459.53544-.49014.5759.0625.71875 1.20187.31066 1.40625.21598 1.40625-.59375 0-.45208.17405-.8125.375-.8125 .24097,0 .30171-.38088.15625-1.15625-.29349-1.56444.16833-2.14262 1.625-1.90625 1.18401.19214 1.49809-.17102.6875-.84375-.22116-.18353-.95319-.29778-2.09375-.3125zm13.8125.625c-.13692.0274-.30625.13749-.375.34375-.0678.20344.0465.31782.25.25s.375-.23939.375-.375c0-.1925-.11308-.24613-.25-.21875zm26.875,1.5625-2.9375.125c-1.62262.0776-3.01432.20111-3.09375.28125s-.41325,1.20298-.71875,2.46875-.7104,2.83935-.90625,3.53125c-.28832,1.01857-.25707,1.32071.125,1.5625 .61533.38936.85206.39911 1.65625-.0312 .52478-.28083.63853-.58809.5-1.40625-.0969-.57209-.065-1.62308.0625-2.34375 .2153-1.21679.31444-1.32479 1.53125-1.53125 .89377-.15166 1.53787-.0956 2.03125.21875 .6521.41553.7906.40587 1.25-.25 .28026-.40015.5-1.16314.5-1.6875v-.9375zm-47.40625,1.875c-.21113.0246-.44561.18059-.53125.4375-.0946.28362.0593.41661.4375.34375 .32441-.0625.5636-.28793.53125-.46875-.0433-.24186-.22637-.33714-.4375-.3125zm21.09375,2.125c-.3653,0-.65625.22604-.65625.5s.29095.5.65625.5 .65625-.22599.65625-.5-.29095-.5-.65625-.5zm28.46875.0625c-.53337.0235-1.15625.38522-1.15625.78125 0,.28525-.33796.46875-.84375.46875-.83077,0-2.78125,1.20925-2.78125,1.71875 0,.14682.81796.28125 1.8125.28125 1.10283,0 1.8125-.15303 1.8125-.375 0-.20104.23582-.26962.53125-.15625 .29415.11284.72044.0186.96875-.1875 .52375-.43467.61251-2.10493.125-2.40625-.12775-.079-.29096-.13283-.46875-.125zm-37.125,1.96875c-.14977-.004-.31691.0159-.5.0312-1.6318.13709-1.7481,1.02235-.25,1.90625 .62811.3706 1.23215,1.02408 1.34375,1.46875s.39698.8125.65625.8125c.37414,0 .43529-.34881.28125-1.71875-.21654-1.92588-.48283-2.47493-1.53125-2.5zm46.78125,2.25c-.72483,0-1.09464.50248-.84375,1.15625 .22425.58439 1.42724.66067 1.625.0937 .23319-.6685-.13494-1.25-.78125-1.25zm-49.78125.0937c-.14864.0143-.28708.0226-.46875.0625-.7587.16662-1.29618.66067-2,1.78125-.52906.84238-.96531,1.70561-.96875,1.9375-.009.58416 1.24985,1.0515 2.625.96875 .96277-.058 1.14551-.21856 1.21875-.90625 .0482-.45206.26012-1.37899.46875-2.0625 .41526-1.36054.16549-1.88128-.875-1.78125zm-23.21875.59375c-.0744.009-.14431.0193-.1875.0625-.21181.21182 1.16911,1.51103 1.625,1.53125 .13562.006.25-.19363.25-.46875 0-.47181-1.16688-1.18694-1.6875-1.125zm10.21875.625c-.18082,0-.3125.16293-.3125.34375s.13168.3125.3125.3125 .34375-.13167.34375-.3125-.16292-.34375-.34375-.34375zm41.25.125c-.0393.007-.11104.003-.15625.0312-.18082.11182-.3125.29524-.3125.375s.13168.125.3125.125 .34375-.15225.34375-.34375c0-.14361-.0696-.20732-.1875-.1875zm-37.09375.34375c-.11789.0303-.1875.2208-.1875.5 0,.37234.13168.6875.3125.6875s.34375-.2082.34375-.46875-.16292-.57571-.34375-.6875c-.0452-.0279-.0857-.0414-.125-.0312zm74.375,3.15625c-1.47643,0-3.5625.70173-3.5625,1.1875 0,.4277 1.3758,1.04818 2.40625,1.09375 .32279.0142.9293-.20795 1.375-.5 1.19879-.78548 1.07764-1.78125-.21875-1.78125zm-84.78125.0312c-.18141.0488-.3125.22235-.3125.5 0,.40593-.22896.4506-1,.28125-.54247-.11915-.97572-.0875-.96875.0625 .0154.33105 1.64933,1.47822 3.46875,2.4375 .83082.43803 1.51484,1.11033 1.78125,1.75l.40625,1.03125 .21875-.96875c.11217-.52314.41627-1.07682.6875-1.21875s.7946-.34988 1.15625-.46875c.58932-.19375.51349-.34728-.8125-1.5-1.48277-1.28898-2.40471-1.59731-2.8125-.9375-.13644.22073-.38883.11387-.6875-.3125-.3522-.50284-.82264-.73751-1.125-.65625zm78.21875.0312c-.15156.0145-.28503.12875-.5.34375-.2869.28689-.45321.74598-.34375,1.03125 .21433.55851.52664.65733 1.34375.34375 .66185-.25395.6876-.9242.0312-1.46875-.21005-.17433-.37969-.26451-.53125-.25zm-40,.59375c.26073.0327.67564.34427 1.125.90625l.71875.90625 .78125-.6875c1.10609-.9615 2.32839-.68881 2.8125.59375 .33751.8942.2936,1.22436-.4375,2.6875-1.02934,2.05999-1.29789,2.34647-1.65625,1.78125-.39212-.61845-1.61815-1.25-2.40625-1.25-.476,0-.68919-.25276-.71875-.84375-.10649-2.13023-.17144-2.65599-.40625-3.34375-.18037-.52826-.0732-.78267.1875-.75zm11.90625.3125c.57749,0 .67477.21818.21875.5-.16834.10411-.41767.0275-.53125-.15625s.0306-.34375.3125-.34375zm-39.96875.6876c-1.15696,0-1.26511.70462-.21875,1.4375 .91054.63778 1.59375.67392 1.59375.0625 0-1.03028-.45148-1.5-1.375-1.5zm-8.1875.3125c.15301,0 .46239.22875.6875.5 .33318.40149.3118.5-.0937.5-.27404,0-.58341-.22877-.6875-.5s-.0592-.5.0937-.5zm57.375.1875c-.27393.03-.56574.25879-1.03125.78125-.48674.54628-1.1197.99912-1.40625,1s-.95752.37349-1.5.8125c-.81401.65873-.92202.88809-.625,1.375 .33003.54107 1.32367.98071 2.375,1.0625 .23171.018.51625-.18535.625-.46875s.0174-.7014-.1875-.90625c-.42684-.42682-.49406-.875-.125-.875 .13795,0 .384.31189.5625.71875 .46117,1.05115 1.99321,1.16459 3,.21875s1.0121-1.55063-.0312-1.8125c-.6182-.15514-.79759-.3359-.65625-.78125 .12575-.39621-.0294-.73361-.46875-.96875-.20977-.11227-.36689-.17423-.53125-.15625zm8.0625.1875c-1.04513-.005-1.77873.51702-1.4375,1.40625 .13539.3528-.10599.83606-.6875,1.375-.83093.77008-.86526.86454-.375,1.40625 .29073.32128.53125.85435.53125,1.1875 0,.66802.91204,1.8125 1.4375,1.8125 .18377,0 .60681-.232.9375-.53125 .8123-.73514.76994-1.78125-.0625-1.78125-.55493,0-.61054-.14933-.4375-1.0625 .43291-2.28457 1.50931-2.93446 1.34375-.8125-.10558,1.35316.58132,1.48507 2.125.4375 .64834-.43997 1.66095-.90189 2.25-1.03125 .91668-.20135 1.02436-.15811.84375.3125-.18322.47751-.0234.54293 1.1875.375 1.5323-.21252 1.9184-.0419 2.5,1.0625 .48163.91458.81665.92728 2.03125.0625 1.17441-.83627 1.2515-1.88317.1875-3.03125-1.17187-1.26449-2.85575-1.46659-5.46875-.625-2.70584.87145-3.47722.89568-4.84375.0625-.69367-.42294-1.43542-.62189-2.0625-.625zm-20,.375c-.10417.0104-.22746.0256-.34375.0625-.87697.27834-.92573,1.5-.0625,1.5 .33952,0 .79978-.25235 1.03125-.53125 .48913-.58939.10418-1.10413-.625-1.03125zm-71.65625.5625c.96813,0 .76832,1.84205-.3125,2.84375-.58636.5434-.90625,1.16213-.90625,1.78125 0,.52505.0253.96875.0625.96875s.61509-.36044 1.28125-.8125 1.4205-.84375 1.65625-.84375c.7175,0 1.44493-1.31257 1.09375-1.96875-.42213-.78878.66476-2.15228 1.46875-1.84375 .44049.16901.5103.42918.34375,1.1875-.18159.82679-.0814,1.03102.5625,1.28125 2.8532,1.10885 3.58756,1.58423 4.71875,2.9375 1.95225,2.3355 4.09375,6.27597 4.09375,7.5625 0,.77038.3187,1.47406 1,2.25 .54247.61786.96875,1.33296.96875,1.59375s.34315.69765.75.96875 1.27336,1.31649 1.90625,2.3125 1.85072,2.80785 2.71875,4.03125c1.44217,2.03257 3.5,5.95458 3.5,6.65625 0,.15922.20525.41787.4375.5625 .53366.33225 2.63697,3.22822 3.28125,4.53125 .26824.54247.65653,1.72088.875,2.625 .28234,1.16856.80693,2.07333 1.8125,3.125 .99051,1.03596 2.01483,2.81852 3.4375,5.90625 2.22479,4.82859 2.36751,5.78523.625,4.5625-.59049-.41438-1.16823-.87633-1.28125-1.03125s-.32154-.1563-.4375.0312-.0588.44891.125.5625 .34375.47175.34375.8125 .31926.87644.71875,1.15625c.49396.34598.63441.61558.40625.84375s-.62408-.0587-1.25-.84375c-.60462-.75835-1.21814-1.15625-1.75-1.15625-1.08315,0-.87906-1.04596.25-1.3125 .58943-.13913.8125-.40842.8125-.96875 0-.94716-.59349-1.18774-1.25-.53125-.71886.71887-2.32665.22815-4.75-1.4375-1.34538-.92474-2.14411-1.72375-2.28125-2.28125-.11556-.46975-.44328-1.19976-.71875-1.625-.29999-.46307-.45197-1.36682-.40625-2.25 .0832-1.60776-.35163-2.40625-1.3125-2.40625-.49178,0-.625.25715-.625,1.21875 0,.66796.22624,1.47548.53125,1.8125 .79968.88365.19172,1.34076-1.125.84375-1.49002-.5624-1.91138-.0757-1.375,1.59375 .2232.69473.58247,1.51001.8125,1.78125 .60224.71015 1.85913,3.01586 1.71875,3.15625-.0654.0654-.62844-.34363-1.25-.875s-1.39664-.96142-1.71875-.96875c-.79387-.018-1.06341.84527-.5625,1.78125 .22618.42261.30991.92692.1875,1.125-.32022.51811-1.33426.45124-1.8125-.125-.22511-.27124-.69175-.5-1.03125-.5s-.64842-.18023-.65625-.40625-.73288-1.22421-1.625-2.21875c-1.37442-1.53217-1.69357-1.74645-2.1875-1.4375-.32062.20054-.59375.59574-.59375.875 0,.82467 2.41414,3.19532 3.46875,3.40625 1.21234.24246 1.37345.4981.96875,1.5625-.35528.93448-1.14064,1.1486-1.4375.375-.10411-.27124-.45416-.5-.78125-.5-.70205,0-2.0625.88485-2.0625,1.34375 0,.62375 1.01982.70098 1.65625.125 .62164-.56256.65625-.56748.65625.0937 0,.69.25237.82301 2.21875,1.21875 .93188.18757 1.0625.12751 1.0625-.46875 0-.37602.0747-.6875.15625-.6875 .14411,0 2.88181.74787 4.375,1.1875 .53664.15798.71875.0788.71875-.28125 0-.86991.9689-.90217 1.875-.0625 .49452.45831 1.26248.8125 1.78125.8125 .5043,0 1.31014.16463 1.78125.34375 .7205.27393.78768.39996.5.9375-.47441.88645-.44703.91699.6875,1.3125 1.40487.48974.89338,1.15904-.6875.90625-1.0181-.16281-1.33094-.054-1.96875.625-.65366.69579-.72386.92793-.40625,1.625 .28713.63019.60309.81805 1.4375.8125 .59396-.005 1.96043.11726 3.03125.28125 1.79782.27535 3.16889.15849 4.53125-.40625 1.31316-.54434 2.14786,2.80789.96875,3.875-.69845.63206-.6934.63902-1.34375.21875-.27123-.17531-1.16927-.34098-1.96875-.34375-.85549-.003-1.69434-.1951-2.03125-.5-.31486-.28494-1.14607-.60377-1.875-.6875-1.22814-.14108-4.12563-1.48799-4.5-2.09375-.0897-.14505.16836-.65517.5625-1.15625l.71875-.90625-.8125.1875-2.28125.5625c-.81371.20679-2.05795.29707-2.78125.1875-1.54358-.23386-4.78125-1.50257-4.78125-1.875 0-.14177-.38444-.46172-.875-.71875-.81998-.42961-.93653-.43632-1.25.1875-.23844.47444-.9331.8152-2.3125,1.125-5.38591,1.20956-8.85879,1.06985-12.96875-.53125-1.35618-.5283-3.05795-1.14407-3.78125-1.375s-1.45322-.5436-1.625-.6875-.65728-.25-1.0625-.25-.81046-.12627-.90625-.28125-.98503-.36723-1.96875-.46875-2.16476-.44845-2.625-.75-.97134-.45803-1.15625-.34375c-.36461.22535-2.34375-1.06304-2.34375-1.53125 0-.15751.16165-.20622.34375-.0937s.42278-.0298.53125-.3125 .40435-.5.65625-.5 .4375-.1971.4375-.4375-.29895-.42059-.6875-.40625c-1.2461.046-1.0395-.75298.28125-1.09375 1.56636-.40412 4.77758-.36434 5.0625.0625 .40644.60889 2.76094,1.19754 4,1l1.21875-.1875v1.5c0,.84063.17625,1.60116.40625,1.75s3.40884.28125 7.0625.28125h6.625l-.15625-.75c-.10195-.40685-.0464-.71875.125-.71875s.48153-.39168.6875-.84375c.21969-.48214.6414-.8125 1.03125-.8125 1.24131,0 .77414-1.25355-.75-2.03125-1.2579-.64186-2.00142-.70644-7.625-.8125-4.8997-.0924-6.32223-.22887-6.59375-.59375-.44664-.6002-3.94191-1.5-5.8125-1.5-.79825,0-1.71347-.17387-2.03125-.40625-1.2405-.90708.8929-1.87957 7.03125-3.21875l2.78125-.625 2.78125.78125c1.53564.43246 2.90706.72107 3.0625.625s.42856-.53425.59375-.96875c.38886-1.02275 1.79435-1.04974 2.59375-.0625 .66341.81926 1.65625.62928 1.65625-.3125 0-.33113.157-.75074.34375-.9375 .45129-.4513.0982-1.30346-.78125-1.875-.89509-.58179-4.96281-1.3752-5.46875-1.0625-.20763.12832-.29044.58983-.1875,1 .15791.62913.0137.76605-.84375.9375-.55892.11182-1.16095.1138-1.34375,0s-2.01692-.17594-4.09375-.15625c-3.17455.0303-3.97146.12908-4.875.6875-.59113.36533-1.24166.65625-1.46875.65625s-1.29186.5892-2.375,1.3125c-1.89923,1.26825-2.07775,1.3125-4.6875,1.3125-2.20417,0-2.8068-.10408-3.25-.59375-.29924-.33054-.53125-.74832-.53125-.9375s-.48683-.44736-1.0625-.5625c-1.0871-.21741-1.55277.14337-1.5625,1.15625-.003.2884-.32585.79773-.6875,1.125s-.65625.88836-.65625,1.25c0,.63411-.0299.62961-.65625.0625-.35738-.32344-.56104-.72571-.46875-.875s-.007-.53479-.21875-.875c-.23737-.38009-.29493-1.07332-.15625-1.8125 .25253-1.34617.28643-1.37522 1.1875-.8125 .48849.30508.7117.31969 1,.0312 .52995-.52994.12172-1.40625-.65625-1.40625-.77301,0-1.01273-.66548-1.0625-2.875-.0282-1.26236.19567-2.12052.96875-3.59375 .5579-1.06318 1.37701-2.88477 1.8125-4.0625 1.19263-3.22516 2.80495-6.24307 3.4375-6.4375 1.14125-.35077 1.55266-.71249 1.5625-1.375 .0204-1.36333 2.03061-2.68048 2.625-1.71875 .35394.57269 1.38364.3402 1.5625-.34375 .10286-.3934.46316-.65625.875-.65625 .37857,0 .6875-.0569.6875-.15625 0-.52045-1.05922-2.12065-1.40625-2.125-.22139-.003-.60783-.13162-.84375-.28125-.64799-.41099.44215-2.85421 1.65625-3.71875 .87336-.62188 3.12059-3.80457 5.5625-7.90625 .71557-1.20192 1.35039-1.69365 3.90625-3 1.67922-.85829 3.37275-1.79829 3.75-2.0625s.92858-.46875 1.25-.46875zm34.65625,2.0625c-.0752.0161-.14802.05-.21875.0937-.60699.37512-.29299,1.81961.875,3.8125 .99676,1.70068 1.26118,2.51862 1.53125,4.9375 .17877,1.60135.41157,2.83844.5,2.75s.31677-.78683.5-1.5625c.51975-2.20035.32561-5.53492-.375-6.5-.32819-.45207-.87321-1.36713-1.1875-2.03125-.49902-1.05445-1.09854-1.61273-1.625-1.5zm52.1875.4375c-.1502.0375-.31366.21397-.5625.59375-.74401,1.13549-.40469,1.90666.625,1.4375 .42691-.19454.84932-.52026.9375-.75s-.11259-.67472-.4375-.96875c-.27517-.24903-.4123-.34998-.5625-.3125zm-22.5,4.4375c.16225-.0499.4375-.008.84375.0937 .54466.1367.84375.45132.84375.875 0,.3582-.0806.65625-.15625.65625s-.37273.0787-.65625.1875c-.35586.13656-.60727-.0968-.84375-.71875-.26103-.68656-.30167-1.01063-.0312-1.09375zm-35.9375.96875c-.11789.0501-.1875.17689-.1875.3125 0,.18082.13168.34375.3125.34375s.34375-.16293.34375-.34375-.16292-.3125-.34375-.3125c-.0452,0-.0857-.0167-.125,0zm-38.40625,1.0625c-.14348.054-.25.2308-.25.53125 0,.40383.19502.6875.5.6875 .30616,0 .46917-.20682.40625-.53125-.1-.51551-.41711-.77744-.65625-.6875zm13.53125.90625c-1.11165,0-1.59312.71642-.96875,1.46875 .47697.5747 1.11314.63087 2,.15625 .96355-.51568.25941-1.625-1.03125-1.625zm59.03125.3125c.27124,0 .5.14237.5.3125 0,.41458-.51858.73141-.78125.46875-.37024-.37027-.22717-.78125.28125-.78125zm-44.9375.0937c.24037-.0851.50799.0838.625.53125 .098.37471.44837.76932.78125.875s.69145.50862.8125.90625c.33451,1.09875 1.15014,1.875 1.96875,1.875 .40469,0 .83015.22027.9375.5s.46239.45994.78125.40625c.45224-.0762.57802.18622.65625,1.125l.125,1.1875h-1.53125c-1.35566-.0204-1.62548-.17294-2.65625-1.375-1.95549-2.28047-3.13391-4.2419-3.03125-5.09375 .0616-.51073.29088-.85235.53125-.9375zm12.40625.0625c-.044-.007-.0755.0398-.0937.0937-.16857.49885.50691,1.71875.9375,1.71875 .17912,0 .055-.47481-.25-1.0625-.22877-.44075-.46167-.72805-.59375-.75zm58,0c-.34771.0156-.92627.12402-1.46875.3125-1.386.48159-1.96541,1.66626-1.09375,2.21875 .62418.39566.75613.36452 2.0625-.40625 1.17209-.69154 1.56621-1.82602.75-2.125-.0565-.0207-.1341-.005-.25,0zm33.5,1.3125c.50927-.0401.9973.00042 1.40625.125 .60433.18412 1.50274.42114 2,.53125 1.08284.23973 1.24122.9103.1875.8125-1.19336-.1108-2.875.38975-2.875.875 0,.4608 2.314,2.125 2.96875,2.125 .20171,0 .80815.30612 1.34375.6875 1.12512.80118 1.4947.64856.875-.34375-.23685-.37923-.74768-.6875-1.15625-.6875-.81165,0-.9654-.61148-.40625-1.65625 .82935-1.54965 4.35836-.13942 6.09375,2.4375 .6239.92642 1.125,1.86086 1.125,2.09375s.37531.57191.84375.75c.47956.1823 1.00811.75444 1.21875,1.3125 .26031.68963.56496.96898 1,.90625 .34385-.0496.74689.13501.875.40625 .52617,1.11398 1.19849,2.28597 2.09375,3.625 .52097.77919.98921,1.8719 1.03125,2.40625s.38532,1.20937.75,1.5c.75003.59775 2.6875,6.22886 2.6875,7.78125s-.65517,2.25512-1.8125,1.9375c-.52554-.14424-2.0839-.22337-3.4375-.1875-1.92838.0512-2.58952.2157-3.125.71875-.37587.35314-.88049.625-1.125.625-1.1653,0 .0857.34538 1.8125.5 2.47367.22152 3.09375.41068 3.09375.96875s.74579.8326 2.625.90625c.86195.0338 1.51742-.11466 1.59375-.34375 .0707-.21182.33413-.375.59375-.375 .33932,0 .39828.22166.25.8125-.17062.67973-.0665.8125.5.8125 .57932,0 .6601.16829.5.96875-.10762.53816-.0495,1.02905.15625,1.15625 .40215.24855.50467,3.43149.125,4-.53947.80796-1.84247,1.125-4.65625,1.125-1.62865,0-3.04765-.13678-3.15625-.3125s.0494-.70705.34375-1.15625 .42614-.9724.3125-1.15625-1.19331-.62356-2.40625-1c-2.47289-.76756-4.13211-.66685-4.65625.3125-.27219.50858-.15649.75601.625,1.3125 .52502.37384 1.11438.6875 1.3125.6875s.34375.19752.34375.46875-.15.5-.34375.5-.57252-.22876-.84375-.5c-.67028-.67028-1.4375-.61892-1.4375.0937 0,.45992-.30597.61591-1.40625.65625-.76849.0282-1.6696.0734-2.03125.0937s-1.93174-.11342-3.46875-.28125c-2.9073-.31753-3.94777-.0923-4.90625,1.0625-.81121.97744-.0324,1.15077 2.21875.5 1.81534-.52476 2.82692-.61792 5.65625-.46875 1.89867.10014 4.82573.23968 6.5.3125 2.45782.10695 3.20188.25845 3.90625.8125 .8574.67444.88797.67463 1.5625.0625 .37749-.34254.91625-.53203 1.1875-.4375 .85829.29905 1.35926,1.47187.5625,1.3125-.38527-.077-.40395.61143-.0625,1.625 .24461.72609.8125.44295.8125-.40625 0-.58725.18032-.8125.625-.8125 .3423,0 .70349-.24714.8125-.53125 .17642-.45971.28655-.43912 1.09375.0937 .49878.3293 1.21069.77391 1.5625.96875 1.38882.76903 1.93525,1.9806 2.09375,4.71875 .1371,2.36838.0853,2.63848-.46875,2.8125-1.19142.37421-1.625.72759-1.625,1.34375 0,.47541.24039.61063.9375.5625 .50139-.0346.81776.0586.71875.21875-.18744.30329-.20906,3.81697-.0312,6.09375 .10253,1.31171-.61869,3.26555-2.09375,5.65625-.7656,1.24086-1.40658,1.33961-2.9375.40625-.95921-.58483-1.07421-.81643-.90625-1.65625 .21611-1.08058-.0262-1.18176-.96875-.46875-.94514.71485-2.13971.61184-3.5-.3125-.66527-.45206-1.42601-.84375-1.6875-.84375s-.55216-.22876-.65625-.5c-.34556-.90054-1.45278-.56871-1.6875.5-.25226,1.14851-.73448,1.54676-1.25,1.03125-.20123-.20125-.69658-.375-1.09375-.375-.77395,0-2.40315-1.64363-3.25-3.28125-.89506-1.73085-1.57362-.99517-.75.8125 .28493.62533.27244.9463 0,1.21875-.4772.47718-1.91244-.40992-2.21875-1.375-.11867-.37388-1.33189-1.85849-2.71875-3.28125s-2.66293-2.74195-2.84375-2.9375c-.81606-.88243-2.40338-1.97161-2.59375-1.78125-.45127.45127-.16665,1.1393.625,1.5 .45651.20802 1.13382.84498 1.5,1.4375s.95032,1.16629 1.3125,1.28125c.52229.16577.58492.32164.28125.6875-.59296.71449-.17496,1.28418 1.9375,2.71875 1.78194,1.21009 2.5877,2.36442 2.15625,3.0625-.27706.44828-3.01528.31415-5-.25-1.21864-.34636-2.30977-.93689-3.125-1.71875-1.2171-1.16724-1.24591-1.17007-1.4375-.4375-.17829.68177-.33452.71072-1.71875.53125-.83584-.10842-2.19575-.34835-3.03125-.53125s-2.23757-.36137-3.125-.40625c-2.00348-.10139-4.92929-1.62134-5.59375-2.90625-.27362-.52913-.36977-1.24154-.25-1.71875 .12978-.51706.0183-1.1512-.3125-1.65625-.61504-.93873-.67143-1.15625-.21875-1.15625 .18082,0 .34375.17926.34375.40625 0,.40177 1.59591,1.13157 3.28125,1.46875 .72801.14565.83017.29564.71875,1.25-.17183,1.47189.82669,2.09099 2.0625,1.28125 .45391-.2974.84651-.70103.84375-.90625-.009-.66823-.57176-1.27964-1.03125-1.125-.41265.13888-1.25665-.59873-1.28125-1.125-.006-.12303.34315-.25471.75-.3125 1.16836-.16593 1.04047-1.27107-.28125-2.65625-1.10299-1.15597-1.28237-1.25-3.125-1.25-1.48028,0-2.20346.19915-2.90625.71875-.99433.73514-1.36135.77095-4.5.4375-1.2818-.13614-2.26983-.084-2.71875.15625-.64419.34476-.6875.28483-.6875-.59375 0-.6893.17445-.99902.65625-1.125 .52392-.137.62652-.37136.46875-1-.37009-1.47455 1.59555-1.26202 2.96875.3125 .47438.54393 3.08221.80999 3.375.34375 .28918-.46047.14085-1.57837-.28125-2.09375-.49021-.59859-2.43454-.8035-3.375-.375-.66216.30171-1.04729.27521-1.71875-.0312-.74317-.33861-.96868-.29722-1.5625.25-.51485.47446-1.2953.66498-3,.75l-2.3125.125-.15625-1c-.14214-.82114-.35746-.97872-1.21875-1.0625-.9839-.0957-1.05242-.034-1.59375,1.625-.31305.95942-.72411,1.9265-.90625,2.15625-.49592.62559-5.03556,2.71875-5.90625,2.71875-.41698,0-1.09445.24719-1.5.53125-.60143.42126-.93428.42517-1.84375.125-1.42801-.47126-1.56898-.85866-.96875-2.90625 .38293-1.30632.86516-1.9995 2.1875-3.15625 .93347-.81653 1.80244-1.5 1.9375-1.5 .32598,0 1.59375-2.44959 1.59375-3.09375 0-.27844.13534-.53125.3125-.53125s.60966-.57738.96875-1.28125c.72609-1.42326 2.86654-3.37353 4.6875-4.3125 .65565-.33812 1.49075-1.12999 1.875-1.78125 .82747-1.40245 1.19032-1.30364 1.46875.4375 .29649,1.85419 1.10713,2.65473 2.4375,2.4375 .77333-.12625 1.14168-.38141 1.28125-.9375 .26856-1.07002.96508-1.62979 1.21875-.96875 .10695.27857.57455.63887 1.03125.8125 .49928.18982.8125.58014.8125.96875 0,.88832.44506,1.09325 1.1875.53125 .86234-.65275 1.38566-.59786 1.625.15625 .11182.35242.46247.73266.8125.84375 1.00263.31822 3.66258-.19645 3.875-.75 .29154-.75976-1.21236-1.70621-2.71875-1.71875-2.61415-.0217-3.65864-.37391-4.25-1.375-.30912-.5233-.75833-.9375-1-.9375s-.52406-.20568-.625-.46875c-.2037-.53081-2.55433-1.84375-3.3125-1.84375-.26626,0-.57272.29461-.6875.65625-.14212.4478-.49312.6656-1.09375.65625l-.875-.0312 1.1875-1.03125c.65296-.58016 1.28173-1.38453 1.40625-1.78125 .21241-.67672 3.80631-4.0625 4.3125-4.0625 .12776,0 .60273-.2946 1.0625-.65625s1.24483-.65625 1.75-.65625c1.18027,0 1.96875-.77301 1.96875-1.96875 0-.95417 1.90774-3.40958 5.40625-6.90625 .81414-.81372 1.58374-1.74304 1.6875-2.0625s.72372-.87054 1.40625-1.21875 1.48372-.9834 1.78125-1.4375 1.21619-1.20982 2.03125-1.6875 1.5-.99576 1.5-1.125c0-.44394 3.03422-3.79962 3.8125-4.21875 .42825-.23059.98134-.85548 1.25-1.375 .49189-.9512 2.22219-1.72341 3.75-1.84375zm-134.34375,1c-.24957.0602-.1604.2023.5.375 .39896.10434.75.38992.75.625 0,.74025 1.75141,1.1238 2.15625.46875 .33174-.53676-.2867-.9939-1.84375-1.34375-.71262-.16011-1.31293-.18515-1.5625-.125zm93.09375.28125c-.0393-.00076-.0798.0346-.125.0625-.18083.11183-.34375.41626-.34375.6875s.16292.39303.34375.28125 .3125-.41626.3125-.6875c0-.20342-.0696-.34148-.1875-.34375zm-18.75.59375c.0224-.008.0664.004.0937.0312 .10922.10921.0949.38769 0,.625-.10491.2623-.17173.1955-.1875-.1875-.0107-.25994.0265-.44398.0937-.46875zm.78125,1.8125c.0791-.006.13024.0365.1875.0937 .22905.22906.15269.55504-.25,1-.32506.35919-.50354.84024-.40625,1.09375 .17129.44637 2.64118.91163 4.59375.875 1.18228-.0223 1.20694,1.03728.0625,1.9375-.45207.35559-.8125.93165-.8125,1.3125 0,.56174-.19561.71776-1.0625.71875-.58768,0-1.5642.29525-2.15625.65625-1.4665.89413-1.81211.83614-1.59375-.25 .10003-.49726.28189-1.33655.40625-1.84375 .14712-.6001.0289-1.36129-.34375-2.1875-.57225-1.26904-.59717-1.27609.3125-2.46875 .46507-.60974.82511-.91921 1.0625-.9375zm-8,2.1875c-.0393.007-.0798.0346-.125.0625-.18082.11182-.34375.26398-.34375.34375s.16293.15625.34375.15625 .3125-.15224.3125-.34375c0-.14361-.0696-.23857-.1875-.21875zm24.90625,1.1875 1.03125,1.0625c1.57879,1.57861 1.44115,3.2061-.28125,3.21875-.6267.005-4.38815,3.72122-5.15625,5.09375-.63243,1.13009-.97656.53207-.75-1.28125 .21299-1.70469.17121-1.8125-.5-1.8125-.42851,0-.77447.24056-.875.625s-.57116.73964-1.1875.875c-.88377.19414-1.14585.0671-1.90625-.84375-.60682-.72685-.94211-.92656-1.0625-.625-.10003.25039-.17264.15153-.1875-.25-.0156-.42405-.30278-.79389-.75-.9375-.53676-.17242-.61347-.2739-.25-.375 .36682-.10195.46347-.47857.375-1.40625-.12716-1.33352.39112-2.01513 1.03125-1.375 .20123.20124.63879.34375.96875.34375 .33741,0 .7305.38149.90625.84375 .17187.45206.51772.8125.78125.8125s.57265.29439.6875.65625c.55308,1.74259 3.15487,1.39797 3.78125-.5 .18042-.54664 1.02024-1.70309 1.84375-2.5625l1.5-1.5625zm-57.0625,1.4063c.0104-.007.007-.0113.0312,0 2.66673,1.26825 2.80257,1.37453 2.625,2.46875-.18017,1.1103.32888,1.79444.78125,1.0625 .42678-.69053 2.31294.2846 4.75,2.4375l2.15625,1.9375-1.0625.78125c-1.15915.85521-2.80167,1.02735-3.59375.375-.73164-.60255-2.59375-3.0925-2.59375-3.46875 0-.17786-.22876-.49363-.5-.71875s-.5-.74844-.5-1.15625-.20692-.93893-.46875-1.15625c-.51423-.42676-1.78054-2.45614-1.625-2.5625zm-20.625.6875c-.11808.0154-.24006.0525-.34375.15625-.18548.18549-.2465.52218-.125.71875 .32226.52143 1.1875.42853 1.1875-.125 0-.48211-.36452-.79633-.71875-.75zm131.375.5c-.17651.0147-.34489.25391-.40625.6875-.0753.53226.0117.72525.3125.625 .24126-.0804.4375-.41737.4375-.71875 0-.42847-.16724-.60847-.34375-.59375zm-144.125.0937c-.1546.0223-.27979.0923-.375.1875-.58619.5862 4.66892,5.44948 7.09375,6.5625 2.01028.92273 2.125.92592 2.125.21875 0-.3098-.99818-1.5135-2.21875-2.65625-3.06931-2.87363-5.54279-4.46832-6.625-4.3125zm57.8125.625c.19151,0 .34375.16293.34375.34375s-.0452.3125-.125.3125-.23198-.13167-.34375-.3125-.0665-.34375.125-.34375zm65.25,0c-1.03204,0-1.42744.9445-.625,1.53125 .75816.55438.88281.53412 1.65625-.0312 .53169-.3888.56033-.51952.1875-.96875-.24135-.29083-.78314-.53125-1.21875-.53125zm-102.625.4688c-.2629.0916-.45109.51838-.25.84375 .30233.48918.84375.38622.84375-.15625 0-.26059-.14418-.55223-.3125-.65625-.0977-.0604-.19362-.0618-.28125-.0312zm84.59375.875c.14539-.0345.39635.0731.84375.3125 .4732.25325.80077.26911 1.125,0 .3485-.28923.59777-.2113 1.1875.375 1.66998,1.66034 1.91479,3.19925.59375,3.90625-.3494.187-.625.58938-.625.90625 0,.63464-2.69528,3.36297-3.9375,4-.70829.36327-1.54731.67658-2.96875,1.0625-.27123.0736-1.35719.0639-2.40625,0-2.46647-.15074-3.59245-.99427-3.1875-2.40625 .38644-1.34744-.27519-1.58166-1.1875-.4375-.63291.79375-.81163.86383-1.25.5-.28373-.23546-.53125-.62589-.53125-.875 0-.5188-.28746-.568-.9375-.15625-.24919.15781-.37193.42767-.25.625s.0705.66584-.125,1.03125c-.28157.5261.10386,3.1875-1.15625,3.1875-1.5301,0-2.38954-2.57275-2.59375-3.59375-.2443-1.22156.57779-4.21165 1.53125-5.59375 .80848-1.17192 1.84464-1.74908 2.3125-1.28125 .2435.24353.083.45393-.53125.6875-.4815.18309-.875.48574-.875.65625s-.0777.52647-.1875.8125c-.15508.4041.003.53125.78125.53125 .55116,0 1.10699-.16293 1.21875-.34375 .35678-.57726 1.01525-.34739 1.46875.5 .5494,1.02655.70379,1.03324 1.96875-.0312 1.20478-1.01374 1.60311-.90422.65625.1875-.8655.99793-.82214,1.46421.0937,1.21875 .40686-.10899.92082-.21628 1.15625-.21875s.59811-.44337.78125-.96875c.4039-1.15863 1.85332-1.81766 3.65625-1.6875 1.03442.0747 1.48672-.1125 2.25-.84375 .52305-.50111.9375-1.17218.9375-1.5 0-.34574.0421-.52796.1875-.5625zm-47.8125.15625c.19939-.0259.39206.0129.5.1875 .11937.19316-.00085.49841-.25.65625-.65169.41278-.9375.3674-.9375-.15625 0-.36366.35518-.64428.6875-.6875zm86.21875,1.2188c-.48796-.0509-1.09375.61934-1.09375,1.28125 0,1.12145-1.23278,1.31049-7.78125,1.25-1.43032-.0132-1.77059-.12853-2.21875-.8125-.71137-1.08568-1.73008-1.04166-2.78125.15625-1.00665,1.14722-1.68576,1.24347-2.5.34375-.57714-.63775-.60315-.63215-1.71875.21875-1.62442,1.23902-1.85439,1.83748-1.0625,2.6875 .36115.38765.97349.71875 1.375.71875s.92602.28759 1.15625.65625c.50179.80351 1.0625.55341 1.0625-.46875 0-.95699.56928-1.53125 1.5625-1.53125 .66804,0 .78703.12836.65625.8125-.1023.53505.0517,1.02886.46875,1.40625 .60592.54834.69624.52604 2.15625-.25 1.00107-.53208 1.59827-1.0691 1.71875-1.59375 .11306-.49233.50081-.90257 1-1.03125 1.0449-.26934 3.59375.002 3.59375.375 0,.15732.45752.20228 1,.0937 1.02285-.20455 1.26683.10815.59375.78125-.62185.62184-.0151.89941.90625.40625 1.05213-.56306 1.30748-.24617 1.625,2.0625 .21783,1.58367.24393,1.63246 1.21875,1.4375 .54553-.1091 1.37103-.21875 1.8125-.21875 .68168,0 .77585-.1384.6875-.90625-.0826-.71742-.29019-.91172-.96875-.9375-.47032-.0178-1.02955-.145-1.25-.28125-.66434-.4106-.9351-1.58843-.5625-2.40625 .41432-.90935-.22526-1.47378-1.28125-1.15625-.63531.19102-.61581.16042.0625-.59375 .87568-.97376 1.25197-2.14657.78125-2.4375-.0618-.0382-.14904-.0552-.21875-.0625zm-71.9375,1.03125c.48807.0151 1.27615.85631 1.375,1.5625 .18983,1.35628.16159,1.41352-.0937,2.03125-.20706.50088-.12024.59212.53125.5 .6117-.0864.80038-.31082.8125-1.03125 .0205-1.21712.80767-1.73762 1.46875-.96875 .27124.31546.90391.74433 1.40625.96875s.99521.68198 1.09375,1 .28871.80995.4375,1.09375c.74553,1.42221-.96563,3.64854-3.09375,4-.8046.13289-1.21611-.0756-2.21875-1.0625-.67374-.6632-1.42999-1.80141-1.6875-2.53125-.49111-1.39196-.64382-5.26853-.21875-5.53125 .0549-.034.11778-.0334.1875-.0312zm7.28125.34375c.7485.0128.92838.19466 1.125,1.15625 .35431,1.73267-.12409,2.30245-.875,1.03125-.33473-.56664-.73316-1.03125-.875-1.03125s-.25-.26892-.25-.59375c0-.42675.23146-.57354.875-.5625zm40.5625,2.65625c-.31443.0294-.67705.12211-1.09375.28125-.77255.29504-1.74976.53125-2.15625.53125-.88921,0-1.28181.7903-.71875,1.46875s2.28838,1.10622 3.34375.8125c.65315-.18182 1.02195-.0825 1.46875.375 .85842.87897 1.9375.69081 1.9375-.34375 0-.65241-.18799-.85488-.90625-.9375-.75736-.0871-.87466-.22252-.71875-.84375 .23969-.955-.21295-1.43204-1.15625-1.34375zm-120.09375,1.125c-.35157,0-1.15808.40898-1.8125.90625l-1.1875.90625 1.4375.1875c1.77908.20762 2.61511.0334 2.84375-.5625 .23537-.61335-.4978-1.4375-1.28125-1.4375zm41.84375,1.5c.0814.004.19392.0233.34375.0625 .36237.0948.80069.55796.96875,1 .29467.77502 1.125.8854 1.125.15625 0-.73547.5365-.85314.71875-.15625 .15336.58648.43373.75 1.4375.75 1.41558,0 2.03874.83187 1.125,1.5-.45194.33045-.45812.51024-.0937,1.09375 .23622.37822.58153.6875.78125.6875s.64146.2946.96875.65625 .78804.65625 1.03125.65625c.6064,0 .56243.32192-.125.84375s-1.62172.58539-1.90625.125c-.11346-.18355-.74053-.53482-1.40625-.8125-1.31876-.55001-3.34375-2.35365-3.34375-2.96875 0-.21137-.27011-.725-.59375-1.15625s-.76309-1.17936-.96875-1.65625c-.25513-.59157-.30664-.79274-.0625-.78125zm-36.28125.5 .84375.65625c.45976.36165 1.05583.65625 1.34375.65625 .57615,0 .75155,1.13948.21875,1.46875-.18082.11182-.34375.47409-.34375.8125 0,.55921.44412.77552 1.875.9375 .21755.0246.65826-.4707.96875-1.125 .69571-1.46609.36983-2.12916-1.28125-2.59375-.64379-.18115-1.27089-.42688-1.40625-.5625s-.71328-.25-1.25-.25h-.96875zm14.0625.3125c-.30769,0-.45478.16808-.34375.40625 .10536.22603.28923.69416.40625,1.03125 .19479.56111.21786.56657.5.0625 .16947-.30283.22487-.771.125-1.03125s-.39552-.46875-.6875-.46875zm-23.84375.78125c-.45926.047-1.00539.54359-.78125.90625 .25024.40489 1.04619.36838 1.3125-.0625 .1215-.19657.0685-.52518-.125-.71875-.10257-.10257-.25316-.14067-.40625-.125zm30.34375.25c-.64411.0254-1.29912.28492-1.90625.78125-1.34634,1.10063-.84931,1.88259 1.4375,2.25 .92992.14942 1.6875.39549 1.6875.5625s.22876.3125.5.3125 .5-.11976.5-.28125-.21731-.3915-.5-.5c-.73066-.28037-.29105-.8319.5-.625 1.04086.27219.81332-1.07335-.3125-1.875-.62874-.44768-1.26214-.65035-1.90625-.625zm59.34375.34375c.29268.0257.60498.25897.6875.6875 .076.39453-.12322.5625-.59375.5625s-.65625-.21699-.65625-.6875c0-.42126.26982-.58821.5625-.5625zm61.09375.59375c-.2446.0208-.5149.12419-.8125.3125-.39119.24752-.41887.38301-.0625.8125 .5159.62164.76058.64571 1.28125.125 .70713-.70711.32756-1.31236-.40625-1.25zm-27.34375.0625c-.31913.0421-.6956.19563-.90625.40625-.28086.28087-.63272.52723-.78125.53125-.56742.0154-1.66908,1.18193-1.875,1.96875-.18848.72024-.17638.75235.15625.21875 .35974-.5771.41654-.57661.78125.15625 .31367.6303.65744.79621 1.90625.84375 .98689.0375 1.65537-.13519 1.90625-.4375 .56549-.68139.95825-.55674 1.3125.375 .3771.99188.96875,1.09124.96875.15625 0-.3703.39169-1.01854.84375-1.4375 1.06325-.98536 1.03443-1.09224-.25-1.0625-2.40305.0557-4.1875-.15914-4.1875-.46875 0-.18083.31078-.3125.6875-.3125 .87424,0 .63091-.80237-.28125-.9375-.0925-.0137-.17487-.014-.28125,0zm-36.25.1875c.26304-.0209.53461.0384.78125.21875 .51625.37746.55986.52007.1875.96875-.44822.54008-1.38738.70637-1.78125.3125-.62914-.62915.0234-1.43717.8125-1.5zm-68.75.0937c-.18083,0-.34375.13167-.34375.3125s.16292.34375.34375.34375 .3125-.16293.3125-.34375-.13168-.3125-.3125-.3125zm111.59375.9688c-.5134,0-.6283.40293-.25.78125s.75.23217.75-.28125c0-.27124-.22876-.5-.5-.5zm-105.28125,2.0625c-.15235-.002.0968.54001.78125,1.4375 .65426.85777.97977,1.0387 1.25.75 .26298-.281.25008-.41703-.0625-.53125-.23566-.0861-.80757-.5541-1.25-1.03125-.40185-.43339-.62734-.62397-.71875-.625zm93.40625.0625c-.0393-.0101-.0798.003-.125.0312-.18082.11182-.3125.39566-.3125.65625s.13168.5.3125.5 .34375-.31517.34375-.6875c0-.27922-.10085-.46973-.21875-.5zm12.15625.25c-.82482.15998-.92624.9375-.125.9375 .40385,0 .6875-.22625.6875-.53125 0-.30616-.23808-.46918-.5625-.40625zm-96.90625.28125c-.11789.0501-.1875.17689-.1875.3125 0,.18083.16293.34375.34375.34375s.3125-.16292.3125-.34375-.13167-.3125-.3125-.3125c-.0452,0-.11695-.0167-.15625,0zm99.875.65625c-.42982.007-.78125.16606-.78125.46875 0,.92674 2.02076,1.55669 2.5.78125 .12871-.20825-.0416-.56869-.375-.8125-.40516-.29625-.91393-.44429-1.34375-.4375zm-106.75,1.71875c-.43373-.008-.73773.32097-.8125.96875-.0883.76509.006.90625.6875.90625 .44193,0 .98896-.22312 1.21875-.5 .34545-.41623.32853-.57426-.1875-.96875-.33814-.25851-.64601-.40134-.90625-.40625zm84.1875,2.3125c-.3285.0185-.5625.35295-.5625.90625 0,.69832 1.11276.9078 1.5.28125 .12247-.19818-.005-.59973-.28125-.875-.2247-.22471-.45915-.32361-.65625-.3125zm7.0625.5625c-.19053.005-.37509.0531-.5625.125-.27022.10366-.39712.38555-.28125.6875 .25717.67017 1.9375.53603 1.9375-.15625 0-.39819-.52215-.66985-1.09375-.65625zm-86.25.96875c-.45024,0 .0469,2.68243.65625,3.53125 .67809.94472 1.59753.94956 1.75.0312 .0584-.40686.009-.91293-.125-1.09375-1.05915-1.43396-2.02694-2.4687-2.28125-2.4687zm-10.21875,1.375c-.0527-.004-.0968.003-.125.0312-.32356.32357.18192.90625.78125.90625 .50187,0 .51257-.0499 0-.5625-.22926-.22927-.49802-.36389-.65625-.375zm101.03125.0625c-.4538-.0341-1,.31548-1,.75 0,.53968 1.14852.61187 1.46875.0937 .12149-.19657.1086-.48525-.0625-.65625-.10318-.10318-.25498-.17612-.40625-.1875zm2.78125.46875c-1.20496.17922-1.48373.37857-1.28125.90625 .30336.79055 1.9375.49944 1.9375-.34375 0-.47097-.18529-.63256-.65625-.5625zm-128.78125.0937c.11193-.0182.24523,0 .375,0 1.20999,0 1.21701.0642.15625,1.125-.97481.97482-1.0901,1.00478-1.34375.34375-.29409-.76638.029-1.34124.8125-1.46875zm104.9375,2.9375c-.18083,0-.34375.16293-.34375.34375s.16292.3125.34375.3125 .3125-.13167.3125-.3125-.13168-.34375-.3125-.34375zm-2.8125,1c-.27123,0-.46875.13168-.46875.3125s.19752.34375.46875.34375 .5-.16292.5-.34375-.22876-.3125-.5-.3125zm23.96875,0c-.25189,0-.4375.19638-.4375.4375 0,.72817.6168,1.13319 1.0625.6875 .31995-.31996-.12907-1.125-.625-1.125zm5.53125.96875c-.5626.0454-1.06897.25362-1.1875.5625-.23224.60521.29434,1.08596 1.21875,1.09375 1.17712.0102 1.89885.62667 1.6875,1.46875-.29576,1.17842.089,1.5481 1.59375,1.4375 1.25048-.092 1.38392-.18508 1.59375-1.21875 .12509-.61615.46175-1.27618.75-1.4375 .97766-.54711.54538-.82568-1.65625-1.03125-1.20775-.11285-2.34664-.34664-2.53125-.53125-.27697-.27695-.90615-.38913-1.46875-.34375zm-90.5.65625c.18082,0 .41949.16291.53125.34375s.0558.3125-.125.3125-.4195-.13168-.53125-.3125-.0558-.34375.125-.34375zm65.15625.5c-.0531.01-.11404.0203-.15625.0625-.11897.11898-.21875.54685-.21875.96875 0,.54797.18657.78125.65625.78125 .42407,0 .65625-.22689.65625-.625 0-.60027-.5656-1.25411-.9375-1.1875zm-1.84375.15625c-.27124,0-.5.22877-.5.5s.22876.5.5.5 .5-.22875.5-.5-.22875-.5-.5-.5zm6.875.6875c-.0846.0364-.125.21124-.125.5 0,.28189.12872.42605.3125.3125s.26028-.36292.15625-.53125c-.14092-.228-.2592-.31769-.34375-.28125zm-8.875.46875c-.17946.0334-.36406.11409-.59375.21875-.82283.3749-1.02111.6664-.6875,1s2.125-.14226 2.125-.5625c0-.51607-.30537-.7564-.84375-.65625zm-49.84375.21875c.12056-.0222.27926.0293.4375.1875 .23611.23612.22459.42372 0,.5625-.18408.11375-.44148.0395-.5625-.15625-.19525-.31593-.0759-.5568.125-.59375zm109.65625.6875c-.074.00089-.125.0841-.125.25 0,.22827.2773.60611.59375.84375 .48456.36385.62263.36169.96875-.0937 .22603-.29749.4375-.67536.4375-.84375s-.22876-.13134-.5.0937c-.39345.32654-.60655.32654-1,0-.19703-.16351-.30097-.25089-.375-.25zm-168.375,1.5625c.46343,0 .59902.16057.46875.5-.11046.28788-.008.5.25.5 .24343,0 .6061.18882.8125.4375s1.03868.64959 1.84375.875 1.55592.64312 1.65625.9375c.2957.86763 1.73045,2.34375 2.28125,2.34375 .48306,0 .68868-.86915.5625-2.375-.059-.70298.55063-.77617.8125-.0937 .20941.5457 1.4375.67796 1.4375.15625 0-.53478.58739-.36008 1.46875.40625 .45345.39426.84375,1.05568.84375,1.46875 0,.83975 1.06062,1.58174 1.84375,1.28125 .32706-.12553.47253-.45852.375-.96875-.11407-.59664-.0269-.76723.34375-.625 .26917.10332.65313-.0403.875-.34375 .37652-.51489.58246-.52426 3,.0625 1.42462.34577 2.98248.77791 3.46875.96875 .99219.3894 1.74037,1.51094 1.46875,2.21875-.33221.86574.15429,1.47338 1.21875,1.46875 1.76661-.008 2.53125-.34614 2.53125-1.125 0-1.09833.56872-1.51806 1.5-1.09375 .5657.25775 1.00736.23612 1.59375-.0312 .44561-.20301.90573-.24619 1-.0937s1.31474.40346 2.71875.53125c2.73544.24898 6.28619.89041 7.625,1.40625 .71188.27431.74832.36116.25.5625-.86686.35031-.68113,1.0627.40625,1.625 2.09597,1.08387 3.96622.13914 2.28125-1.15625-.95617-.73511-.8955-.75701 1.1875-.15625 4.27488,1.23296 5.45089,1.84728 5.9375,3.0625 .0201.0502.45724-.0555.96875-.25 .77557-.29488 1.08446-.24888 1.84375.3125 .50078.37024 1.29959.65625 1.75.65625s.9178.24145 1.0625.5c.37216.66501 2.09686,1.49759 3.09375,1.5 1.63012.005 3.46714,3.04836 2.28125,3.78125-.51426.31783-.39332,1.46875.15625,1.46875 1.04081,0 .11442,2.10187-1.125,2.5625l-1.5.5625c-.36165.1327-1.34254.28568-2.15625.34375-3.15568.22517-3.82431.93408-1.96875,2.0625 1.11537.67829.99093,1.03125-.375,1.03125-.51234,0-.9375.14834-.9375.3125s-.4119.57317-.9375.90625-2.04714,1.33532-3.375,2.25c-2.1028,1.44851-7.3352,4.22445-9.8125,5.1875-.45206.17573-1.27002.53141-1.8125.8125s-1.1975.64159-1.46875.78125c-3.35859,1.72921-8.76178,3.6968-9.4375,3.4375-.57445-.22044-.32369-1.85312.46875-3.0625 .26832-.40952.39246-.75.28125-.75-.23606,0-1.21332.99703-1.6875,1.71875-1.31399,1.99986-1.75975,2.56259-3.09375,3.96875-.82713.87192-2.02691,1.79603-2.65625,2.0625-1.02661.43463-1.18513.44208-1.53125-.0312-.33809-.46236-.48802-.38376-1.28125.65625-.51662.67731-1.72799,1.60267-2.84375,2.15625-2.24211,1.11241-2.13591,1.10758-3.21875.5625-.53807-.27084-.86521-.74478-.9375-1.375-.0608-.52949-.38513-1.32588-.71875-1.75-.99661-1.26695-1.10097-2.49405-.34375-4.15625 .87591-1.92273 1.75345-2.46479 2.25-1.375 .51147,1.12256 1.4595,1.30303 3.09375.5625 .78281-.35467 1.76854-.75398 2.1875-.875s1.55274-1.02151 2.53125-2 1.85275-1.78125 1.9375-1.78125c.44573,0 5.46875-5.42247 5.46875-5.90625 0-.31307-.10618-1.24079-.21875-2.0625-.18697-1.36408-.28001-1.51308-1.21875-1.65625-.56547-.0862-1.09512-.11725-1.15625-.0625s.22307.55012.625,1.09375c.79619,1.0769.68034,2.02931-.25,2.03125-.32211,0-1.0642.29528-1.65625.65625-1.93959,1.18256-2.94661.67913-2.03125-1.03125 .32398-.60533.29068-.65141-.40625-.40625-.8096.28479-1.3273.29203-5.03125,0-1.26577-.0996-2.54126-.18336-2.8125-.1875-.27123-.005-1.06093-.022-1.75-.0312-.73959-.0102-1.75268.28599-2.46875.71875-1.07824.65169-1.15452.6595-.6875.0937 .28896-.35001.6416-.88102.75-1.1875s.67634-.66191 1.3125-.78125c.62986-.11816 1.24868-.40848 1.34375-.65625 .2263-.58968 2.3296-1.46875 3.53125-1.46875 .67795,0 .93-.15023.9375-.5625 .009-.50316.056-.525.40625-.0937 .22028.27125.97847.78025 1.65625,1.125 1.1494.58463 1.25119.6017 1.8125.0937 .33098-.29955.84837-.5625 1.15625-.5625 .99221,0 1.07716-1.0252.125-1.71875-1.12754-.82137-1.12097-1.10079.0937-1.34375 .93514-.187 1.35117-.95291.71875-1.34375-.15705-.0971-1.84153.12434-3.71875.5s-3.92961.78158-4.5625.90625c-.81466.16048-1.12686.40056-1.0625.78125 .14458.85518-.19171.96539-3.875,1.375-2.24359.24951-4.59375.91293-4.59375,1.28125 0,.50069-3.36427,3.83951-4.375,4.34375-1.3488.67287-2.61636.61011-3.5-.15625-.40604-.35219-.85639-.69532-1-.75s-.73766-1.92718-1.34375-4.1875c-1.1278-4.20569-1.35807-6.87836-.84375-9.875 .13967-.81371.30816-2.76867.375-4.34375 .0812-1.91482.27673-3.0965.625-3.59375 .28648-.40898.52721-1.2684.53125-1.90625 .005-.63785.26994-1.51657.59375-1.9375 .5161-.67086.63792-.6863 1-.25 .22719.27374.55142.89741.6875,1.40625s.4723.97776.75,1.03125c.64095.12348 1.06982-2.64581.5625-3.59375-.42544-.79494-.12815-1.28125.75-1.28125zm105.25.34375c-.1883-.004-.40913.0733-.625.28125-.17178.16551-.67477.34573-1.125.40625-.46055.0619-.8758.36377-.9375.6875-.0876.45904.11541.59375 1.03125.59375 .63137,0 1.40147-.10899 1.6875-.21875s.5-.53606.5-.96875c0-.49643-.21742-.77472-.53125-.78125zm31.84375,0c-2.14384,0-4.81133,1.37341-5.625,2.90625-.48158.90724-.15318,1.37809 1,1.4375 .43382.0223 1.03069.26662 1.34375.53125 .46145.39008.65769.3984 1.0625.0625 .41765-.34663.5-.31904.5.21875 0,1.27032.86256,1.4089 2.625.4375 .63289-.3488 1.50742-.80228 1.9375-1 .69418-.31914.75912-.51707.59375-1.75-.25768-1.92115-1.37627-2.84375-3.4375-2.84375zm22.53125.40625c-.13513.0351-.25.15729-.25.375 0,.28629.24495.53125.53125.53125s.44657-.1915.375-.40625c-.12701-.38101-.43104-.55855-.65625-.5zm-7.59375.71875c-.54663.0535-.875.26851-.875.625 0,.71228 2.62647,3.01655 3.3125,2.90625 .3519-.0566.65625.0578.65625.25s-.1816.34375-.375.34375c-.7244,0-.12826,1.46193.6875,1.6875 .45206.125.88292.23198.9375.25s.66259-.3119 1.375-.71875c1.38824-.79285 1.5257-1.33068.375-1.5-.42871-.0631-.71875-.33305-.71875-.6875 0-1.12509-1.28536-2.30897-3.125-2.84375-.91719-.26664-1.70337-.36605-2.25-.3125zm10.46875.21875c-.0449-.004-.12583.0107-.1875.0312-.23733.079-.48339.32515-.5625.5625-.0822.24657.0347.36345.28125.28125 .23733-.079.51464-.32516.59375-.5625 .0616-.18493.01-.30095-.125-.3125zm-36.5.9375c-.27123,0-.46875.16292-.46875.34375s.19752.3125.46875.3125 .5-.13168.5-.3125-.22876-.34375-.5-.34375zm37.8125.84375c-.51684.0352-.8125.29384-.8125.78125 0,.63544 1.08251,1.27831 2.21875,1.3125 .56802.0171.75-.14358.75-.75 0-.58358-.26436-.89981-1-1.15625-.44827-.15627-.84615-.2086-1.15625-.1875zm-18.03125.90625c-.70275.0182-1.19837.44579-1.375,1.25-.27997,1.2746.77087,2.49711 2.28125,2.6875 2.75247.34695 2.84375.31139 2.84375-.875s-.49166-1.76498-2.25-2.65625c-.56401-.28589-1.07835-.41714-1.5-.40625zm-32.25,2.8125c.14215.008.27189.0308.4375.0937 .43647.16594 1.05612.28426 1.34375.25 .78974-.0941 1.70809.37478 2.78125,1.40625 .53159.51094 1.26671.9375 1.625.9375s.89491.20396 1.1875.46875 1.03048.54382 1.65625.625c1.67782.21761 2.3125.5357 2.3125,1.1875 0,.32016.1975.77489.46875,1 .72422.60105.60394,1.16194-.34375,1.59375-1.04831.47764-1.87994.4944-1.59375.0312 .40043-.64792-.87767-1.20001-2.375-1.03125-.98498.11103-1.61-.009-2-.34375-.31203-.26775-.8398-.57529-1.15625-.6875-.33798-.11987-.5625-.52206-.5625-1 0-1.1321-1.17485-1.84375-3.03125-1.84375-.85323,0-1.63825-.16293-1.75-.34375s-.59097-.3125-1.0625-.3125c-.83934,0-.82177-.0365.4375-1.125 .80526-.6961 1.19854-.93135 1.625-.90625zm-110.625,2.03125c-.17014,0-.38825.13166-.5.3125s.0307.34375.3125.34375 .5-.16294.5-.34375-.14232-.3125-.3125-.3125zm147.15625.125c-.1179.005-.21875.1322-.21875.34375 0,.28189.16291.5.34375.5s.3125-.14236.3125-.3125-.13169-.38826-.3125-.5c-.0452-.0279-.0857-.033-.125-.0312zm-141.03125.84375c-.13486.036-.21875.14025-.21875.3125 0,.49201 1.98101,2 2.625,2 .32843,0 .67717.22876.78125.5 .21333.55588.26185.56452 1,.28125 .39702-.15235.45887-.298.1875-.625-.19866-.23935-.56275-.3651-.78125-.28125s-.88253-.39419-1.5-1.03125c-.78321-.80807-1.68916-1.26414-2.09375-1.15625zm98.71875.1875c.43169-.0768.7023.099 1.21875.65625 .69495.74987.71173.91329.28125,1.34375-.59572.59574-3.43638.9444-4.09375.5-.39948-.27009-.35005-.46245.34375-1.15625 .45608-.45608 1.2442-.9952 1.75-1.1875 .20126-.0765.3561-.13065.5-.15625zm-89.3125.875c-.0678-.009-.0937.0532-.0937.15625 0,.43885.37433.81316.59375.59375 .0935-.0935-.006-.34851-.21875-.5625-.11795-.11794-.21348-.17891-.28125-.1875zm-14.3125.625c-.0603-.004-.15909.0653-.3125.21875-.217.21699-.80619.40625-1.3125.40625-.88473,0-1.18094.28785-.71875.75 .37789.37789 1.47888.23987 1.96875-.25 .25831-.25832.46875-.64508.46875-.875 0-.16256-.0335-.24643-.0937-.25zm156.3125,0c-.46177.0744-.54361.82835-.0625,2.09375 .37072.97508.88151.96308 1.5625-.0625 .40959-.61686.37878-.76009-.28125-1.375-.52486-.48899-.94169-.70088-1.21875-.65625zm-130.5625.28125c-.55611,0-.42414.93893.1875,1.28125 .59686.334 1.4375.14864 1.4375-.3125 0-.31769-1.08968-.96875-1.625-.96875zm121.3125.0937c-.018.0235-.0312.0735-.0312.125 0,.43885.40558.84441.625.625 .0935-.0935-.006-.34851-.21875-.5625-.17694-.17692-.32088-.25789-.375-.1875zm-15.125.6875c-.14988-.01-.29734.0473-.40625.15625-.2697.2697-.27832.50201.0312.875 .52246.62953 1.34375.67068 1.34375.0625 0-.54629-.51912-1.06475-.96875-1.09375zm-113.65625.0312c-.10101-.0168-.11463.0311-.0625.1875 .1143.3429 1.14514.86896 2.5,1.28125 .0453.0138.0625-.10043.0625-.28125s-.24109-.34375-.5625-.34375-.949-.2329-1.375-.53125c-.27676-.19386-.46149-.29566-.5625-.3125zm92.5625.1875c.17016,0 .41949.16292.53125.34375s-.0305.3125-.3125.3125-.5-.13168-.5-.3125 .1111-.34375.28125-.34375zm-116.40625,1.7189c-.0836-.007-.15912.0341-.21875.0937-.11023.11023-.027.3048.1875.4375 .29502.18234.27048.45402-.0937,1.15625-.6581,1.26847-.61546,1.70295.25,2.125 1.31569.64163 1.74902.34539 1.625-1.09375-.0951-1.10396-1.16462-2.66695-1.75-2.71875zm58.78125.25c-.28631,0-.53125.24496-.53125.53125 0,.58059.70305.48461.90625-.125 .0716-.21472-.0887-.40625-.375-.40625zm-9.34375,1.65625c-.58073-.0163-1.08508.0962-1.21875.3125-.10456.16925.20338.48113.6875.71875 2.4865,1.22027 1.68545,2.34621-2.65625,3.6875-1.62743.5028-3.35675,1.13647-3.84375,1.375-.7425.36365-.96089.35481-1.28125-.0312-.46741-.56318-2.21252-1.46875-2.84375-1.46875-.25411,0-.36176-.16293-.25-.34375 .18552-.30017-.0946-.37412-1.25-.40625-.22602-.006-1.10533.18908-1.96875.4375-1.11344.32036-1.53282.57639-1.40625.90625 .10547.27485-.29905.92676-1.03125,1.5625-1.50618,1.30777-1.24848,1.80395.40625.78125 1.12017-.69229 1.27968-.68147 2.25-.21875 .57129.27246 1.5068.5898 2.09375.71875s1.0625.33132 1.0625.46875 .34722.42724.78125.625c.59299.27019.94773.25002 1.375-.0625 .84795-.62003 3.21226.039 4.3125,1.1875 1.15398,1.20452 2.4934,1.21603 3.5625.0625 .43416-.46847.95823-.7474 1.15625-.625 .52636.3253 1.3125-.46667 1.3125-1.3125 0-.40189-.2946-.9852-.65625-1.3125-.88828-.80387-.86086-.92841.5625-1.71875 1.08215-.60087 1.43212-.64484 2.875-.34375 1.41365.29496 1.85116.2429 3-.3125 .99419-.48063 1.46889-.53745 1.875-.28125 .421.26554.65202.1892 1.03125-.3125 .69297-.91679.64748-1.37997-.28125-2.1875-.4459-.38769-.76976-.80441-.6875-.9375 .31386-.50786-.75829-1.03429-1.40625-.6875-.91082.48748-5.02791.55208-5.875.0937-.42883-.23201-1.10677-.35874-1.6875-.375zm51.59375.0312c.37763-.0639 1.01569-.01 2.15625.0937 1.34797.12214 2.79675.35891 3.25.53125s2.68839.3661 4.9375.40625c3.59031.0641 4.08732.14368 4.25.65625 .19548.61589.89718.86665 2.78125,1 .91649.0649 1.20658-.0965 1.46875-.6875 .36556-.8241 1.25453-.91487 3.78125-.40625 .97684.19661 2.15365.18792 3.40625-.0625 1.60039-.31993 2.29374-.30873 4.4375.1875 1.4796.34248 3.59969.56262 5.09375.53125 1.90433-.0399 2.79001.0962 3.40625.5 .45671.29925 1.04118.44784 1.3125.34375 1.32431-.50818 11.54424,1.21946 11.84375,2 .096.25.43181.46875.75.46875 .77954,0 3.96875,1.32821 3.96875,1.65625 0,.14372-.86652.33153-1.90625.4375-4.43785.45225-6.46573,1.8017-7.6875,3.46875-1.04057,1.4198-2.30281,2-.53125,2 1.2054,0 1.54069-.16741 2.15625-1 .80837-1.09339 1.61697-1.38169.96875-.34375-.33903.54287-.29569.7667.1875,1.25 .57669.57683 1.09664.60085 5.3125.34375 .7233-.0441 1.98399-.0215 2.78125.0625 1.01518.10706 1.49099.0216 1.59375-.28125 .0807-.23797-.16132-.49702-.53125-.59375-.66729-.17451-1.84268-2.81358-1.4375-3.21875 .10468-.10468.89692-.1875 1.78125-.1875s2.28081-.17028 3.09375-.375c1.4089-.35475 1.53029-.31161 2.6875.625 1.93181,1.56355 2.83848,3.6463 2.71875,6.28125-.0957,2.10621-.0759,3.61872.0625,6.46875 .04.82509-.34961,2.36808-1.03125,4.15625-.99451,2.60897-1.27402,2.98353-3.09375,4.4375-3.31879,2.65175-3.08004,2.53953-4.15625,2.09375-.52925-.21922-1.24118-.29939-1.59375-.1875-.46722.1483-.68479.0195-.8125-.46875-.11261-.4304-.96791-1.02903-2.375-1.6875-1.83565-.85902-2.331-.96105-3-.65625-1.20832.55057-1.00183,1.52307.5625,2.65625 1.38831,1.00569 3.24081,1.30658 4.21875.6875 .25686-.1626.77457-.1527 1.15625,0s1.06524.36239 1.5625.46875c.65976.14115.90851.37104.90625.90625-.003.76039-1.69123,3.97911-2.28125,4.34375-.1846.11408-.34375.62705-.34375,1.125 0,1.04659-1.69842,2.8795-2.3125,2.5-.40824-.25231-1.5978.24417-2.90625,1.21875-1.29694.96604-3.02596.76288-4.25-.5-.57795-.59629-1.03125-1.27092-1.03125-1.5s-.33567-1.14077-.71875-2.03125c-.60134-1.39787-.7921-1.5995-1.4375-1.4375-.81793.20528-2.63756-.58446-2.875-1.25-.082-.22981-.27047-.31359-.40625-.1875s.0865.63901.46875,1.125 .6875,1.14218.6875,1.46875 .13168.6695.3125.78125c.50027.30918.40512,2.07054-.1875,3.25-1.20102,2.39042-3.1878,2.84083-5.5,1.25-1.9234-1.32335-3.88695-3.5275-4.78125-5.375-.51041-1.05444-.95082-1.5625-1.375-1.5625-.70208,0-.8182-.3693-.28125-.90625 .37935-.37934-.3231-2.12484-1.03125-2.5625-.7294-.45079-1.09719.41749-.53125,1.28125 1.2822,1.95689.28475,2.35802-2.09375.84375-.81371-.51804-2.22519-1.38196-3.15625-1.9375s-1.772-1.23158-1.875-1.5-.45-.5-.75-.5-1.53039-.72088-2.75-1.625-2.33397-1.65625-2.46875-1.65625-.81794-.56796-1.5-1.25c-1.42325-1.42326-2.82817-2.2656-3.1875-1.90625-.24892.24891 1.31197,1.80764 2.4375,2.4375 1.27219.71195.0492.74671-1.9375.0625-1.14085-.39285-2.35663-.78383-2.71875-.875-.77062-.19401-2.46875.38882-2.46875.84375 0,.59149 1.03414,1.34375 1.84375,1.34375 .4455,0 1.16435.21866 1.59375.5 .49303.32305 1.3701.48748 2.375.4375 2.43026-.12086 4.36487.36633 5.84375,1.4375 1.82651,1.32296 2.16282,1.93882.90625,1.6875-.69248-.13848-1.00979-.0379-1.15625.34375-.1108.28863-.50767.53125-.875.53125-.70693,0-.92059.78042-.3125,1.15625 .19807.1224.7099.0659 1.125-.15625 .6474-.34646.88425-.32758 1.75.3125 1.06248.78555 1.13561,1.35802.125,1.09375-.8827-.23083-1.53113.6742-.875,1.21875 .75831.62934 3.78534.83083 4.125.28125 .22328-.36129.36839-.33347.875.125 .34172.30928.78821.5625 1,.5625s.40625.15711.40625.34375 .31189.46146.71875.625c.56677.2278.62832.32778.1875.34375-.38513.0138-.59375.27528-.59375.8125 0,.44138-.13234.88864-.3125,1-.53983.33364.50174,1.97675 2.09375,3.28125 1.14861.94122 1.70957,1.17585 2.5625,1.09375 1.62619-.15649 1.57601-1.03917-.125-2.8125-.80481-.83904-1.15383-1.40154-.8125-1.28125 .33324.11745.98829.32148 1.46875.4375s1.2758.48133 1.75.8125c.70437.49191.84116.8446.8125,1.9375-.0224.85632.15639,1.45895.46875,1.65625 .77753.49112 1.13639.16479 1.03125-.90625-.0864-.87966-.0126-.97526.65625-.84375 1.13653.22351 2.78567,2.59735 3.4375,5 .31873,1.17484.86016,2.50627 1.1875,2.9375 .87618,1.15431.72509,1.55808-.8125,2.40625-1.19431.65883-1.40608.95369-1.65625,2.21875-.19689.99559-.18828,1.661.0625,2.0625 .49169.78731-.002,1.72544-1.375,2.5625-1.67064,1.01863-2.6008.85263-3.28125-.625-.31993-.69477-.48895-1.51555-.375-1.8125 .12524-.32637-.13735-.97595-.65625-1.65625-.47211-.61897-.84375-1.53018-.84375-2 0-.99116-.7834-1.40725-1.5-.8125-.41282.34262-.76497.17316-2.15625-1-1.32044-1.1134-1.73919-1.30003-1.96875-.9375-.48077.75928-.35905,1.0842.84375,2.25 1.41154,1.36813 1.44893,1.92434.15625,2.375-1.39607.48668-.709,1.25 1.125,1.25 .75541,0 1.56427.18927 1.78125.40625 .59653.59653.48439,3.54211-.15625,4.25-.4504.49767-.45622.68826-.0937,1.125 .23836.28718.70218.42981 1.03125.34375 2.19202-.57322-1.98714,3.06552-4.34375,3.78125-.92709.28159-1.44501.25843-2.4375-.15625-1.19615-.49977-1.24243-.50145-1.40625.125-.21766.83232-.63197.77315-2.0625-.21875-.63289-.43884-1.51294-1.22107-1.96875-1.75s-1.23665-1.09797-1.71875-1.28125c-.77483-.29461-.87774-.26357-.96875.375-.12514.87812-2.34255,2.01697-3.40625,1.75-.42525-.10671-1.04679-.80196-1.5-1.65625-.7123-1.34271-.72202-1.52161-.28125-2.375 .26379-.51072.65733-1.08608.90625-1.28125 .62437-.48944-.048-1.78125-.9375-1.78125-.4602,0-.7084-.29197-.84375-.96875-.11867-.59337-.36802-.9111-.625-.8125-.25431.0976-.47844-.18615-.59375-.75-.9452-4.62176-1.82883-6.84375-2.71875-6.84375-.15858,0-.33266,2.22513-.375,4.9375-.0755,4.84125-.25104,5.80081-1.34375,7.125-.40703.49329-.32905.7213.71875,2 1.15981,1.41541 1.47055,2.57827.90625,3.46875-.47194.7447-1.5101.30795-1.625-.6875-.0723-.6273-.28708-.90625-.71875-.90625-1.92988,0-3.28125-1.61407-3.28125-3.9375 0-1.55379-.28483-2.18599-1.65625-3.6875-.54152-.59287-1-1.20351-1-1.375s-.18531-.55828-.4375-.84375c-.62317-.70542-1.55601-5.37625-1.3125-6.59375 .14588-.72943.0517-1.03577-.34375-1.1875-.66408-.25483-.66825-1.04611-.0312-1.75 .58367-.64496.30799-3.24551-.28125-2.65625-.19158.19158-.53241.34375-.75.34375-.48747,0-2.59957-4.09861-3.09375-6-.19938-.76707-.78198-2.0284-1.3125-2.78125-.53205-.75504-.96875-1.78506-.96875-2.3125s-.22003-1.60552-.46875-2.40625c-1.10514-3.55782-1.87787-7.50535-1.78125-9.03125 .10105-1.59599.15356-1.65291 1.25-1.8125 1.07645-.1567 1.08168-.20161.53125-.75-.3176-.31644-.85279-.5625-1.1875-.5625-.41133,0-.72596-.3884-1-1.21875-.223-.67571-.76535-1.96847-1.1875-2.875s-.74824-2.06639-.75-2.5625c-.002-.74406.12292-.87219.71875-.78125 .39732.0606.77392.2593.84375.46875 .1663.49892 1.46521.50368 1.96875,0 .77689-.77689.45708-1.22713-.75-1.03125-.97446.15814-1.16051.11749-1.15625-.40625 .008-.94105.52599-1.57254 1.375-1.65625 1.00204-.0988 3.28023.48814 3.90625,1 .27125.22176 1.08147.63163 1.8125.90625s2.40934,1.26637 3.71875,2.21875c1.89424,1.37776 2.31588,1.87208 2.15625,2.375-.2745.86487 1.53065,2.49078 3,2.71875 .61994.0962 1.64851.27643 2.28125.375 .67924.10581 2.03531.86482 3.3125,1.84375 1.18973.91188 2.21594,1.59654 2.28125,1.53125 .15323-.15324-1.51697-2.77005-2.65625-4.15625-.48501-.59012-1.7387-1.64368-2.78125-2.375-1.27291-.89288-2.32531-2.05978-3.25-3.5-.94596-1.47333-1.88962-2.43474-3-3.125-1.31907-.81999-1.66904-1.24945-1.84375-2.21875-.11777-.65326-.37354-1.53721-.59375-1.96875-.32546-.63782-.31857-1.09763.125-2.53125 .58089-1.87746 1.38007-2.73305 2.5625-2.75 .40049-.006.88776-.3339 1.09375-.71875 .17428-.32566.30987-.49865.6875-.5625zm-72.125.34375c-.20093.037-.28901.27784-.0937.59375 .12102.19578.37842.27003.5625.15625 .22455-.13878.20483-.32638-.0312-.5625-.15824-.15824-.31694-.20968-.4375-.1875zm11.5,1.28125c-.41226.0209-.66421.17711-.90625.46875-1.08903,1.31219 2.26794,2.13612 3.4375.84375 .55482-.61306.53346-.62972-.6875-.96875-.85086-.23626-1.43149-.36464-1.84375-.34375zm-2.1875.3125c-.75658,0-1.12994.49191-.875,1.15625 .22281.58065.59952.61921 1.125.0937 .59892-.59892.46569-1.25-.25-1.25zm90.5.34375c-.32171-.0221-.73674.0736-1.09375.3125-.42732.28593-.4214.39541.125.8125 .69046.52706 1.5.15971 1.5-.6875 0-.26338-.20954-.41541-.53125-.4375zm1.375.96875c-.79831,0-.58157.93357.25,1.09375 1.30862.25204 1.5625.22967 1.5625-.0937 0-.39018-1.11391-1-1.8125-1zm-23.09375.9688c-.905,0-2.88484,1.79094-2.5625,2.3125 .30985.50135 1.66064.40326 2.125-.15625 .2251-.27124.70241-.5 1.03125-.5s.69585-.15501.8125-.34375c.32863-.53173-.50958-1.3125-1.40625-1.3125zm-79.40625,1c-.49727-.003-.90625.16293-.90625.34375 0,.4157.66925.4157 1.3125,0 .38429-.24835.29829-.33983-.40625-.34375zm82.4375.0937c-.34612.0222-.58134.0975-.65625.21875-.12374.20022.0471.44286.375.5625s1.09353.64427 1.6875,1.15625 1.2859.9375 1.53125.9375 .52094.3119.625.71875c.2038.79682 1.63349,1.82618 2.625,1.875 .427.0211.54582-.13628.40625-.5-.10978-.28603-.1875-.85173-.1875-1.25 0-.45598-.37896-.9144-1-1.28125-.54247-.32045-.96875-.80784-.96875-1.0625 0-.66065-.8766-1.04793-3-1.3125-.61626-.0768-1.09138-.0847-1.4375-.0625zm42,1.375c-.0579.007-.13869.0318-.21875.0625-.28635.10989-.53125.32344-.53125.5 0,.43213.74243.17896.90625-.3125 .0601-.18017.0174-.26991-.15625-.25zm-125.09375.0313c-.19078-.0152-.40963-.0172-.65625.0312-1.23189.24175-1.18337,1.09375.0625,1.09375 .5318,0 1.06601-.14718 1.1875-.34375 .26203-.42399-.0214-.73575-.59375-.78125zm79.6875.53125c-.26532.0239-.57299.19155-.96875.46875-.95997.67237-.91872,1.50961.125,2.75 1.17766,1.39955 2.63397,1.41319 2.9375.0312 .16747-.76248.003-1.25055-.6875-2.15625-.6182-.81051-.96406-1.13362-1.40625-1.09375zm-15.03125.59375c.28192,0 .53125.16292.53125.34375-.19187.52407-.55808.25875-.84375,0-.1117-.18083.0305-.34375.3125-.34375zm17.71875,0c-.58926,0-.56655.6644.0625,1.5625 .59848.85445 1.103.95884 1.375.25 .21963-.57232-.76654-1.8125-1.4375-1.8125zm-25.4375,1.3125c.18082,0 .34375.22876.34375.5s-.16293.5-.34375.5-.3125-.22877-.3125-.5 .13167-.5.3125-.5zm-13.21875.0937c.17929.005.31853.0373.375.0937 .48035.48034-.0237,4.78714-.78125,6.78125-.43329,1.14143-1.15667,3.10662-1.625,4.34375s-1.14712,2.8816-1.5,3.65625-.73872,2.05275-.84375,2.84375c-.23125,1.74158-1.29141,6.37856-2,8.6875-.50465,1.64436-.55747,1.69521-2.21875,2.09375-.93508.22431-1.985.60427-2.3125.84375-.82108.6004-.35806,1.20774.71875.9375 .48025-.12054 1.55791-.23426 2.375-.25 1.22016-.0237 1.50897-.14746 1.59375-.6875 .0568-.36165.4454-1.40837.875-2.3125 1.78844-3.76383 2.23459-5.05095 3.3125-9.34375 .62233-2.47844 1.78389-6.11397 2.59375-8.09375 1.71815-4.20017 3.52354-6.22772 5.8125-6.59375 .70894-.11341 1.37167-.34291 1.46875-.5 .45098-.72971 1.95437-.22311 2.9375.96875 2.00823,2.43461 2.70943,4.01154 3.34375,7.78125 .99145,5.89198 1.00608,6.26598.65625,6.6875-.27049.32592-.19211.68908.25,1.4375 .71212,1.20554 1.76264,7.17401 1.5625,8.84375-.12526,1.04506-.0249,1.22744.6875,1.40625 .69526.17448.97924.74636 2.125,4.0625 .73492,2.12702 1.48252,4.39837 1.65625,5.03125 .86319,3.14453 1.46469,6.24051 1.5,7.6875 .0319,1.30444.16798,1.64001.71875,1.84375 .5082.188 1.13875,1.43874 2.4375,4.96875 1.84731,5.02102 2.35663,7.75873 2.0625,10.75-.21306,2.167-.72598,3.36215-2.25,5.0625-.60825.67862-1.125,1.60351-1.125,2.03125 0,.66705-.26618.85232-1.90625,1.3125-2.13015.59768-2.1205.60109-3.5.1875-.54248-.16264-1.94963-.38708-3.125-.46875s-3.29289-.54588-4.6875-1.03125c-2.28641-.79572-2.57703-.97123-2.90625-1.96875-.48568-1.47166-.81593-1.62099-1.84375-.8125-.47471.37339-1.11092.6875-1.4375.6875s-.70073.13168-.8125.3125c-.29326.47453-2.2975.40291-3.53125-.125-3.89802-1.66783-4.14383-5.58956-.6875-11.21875 1.86464-3.03684 2.3883-4.2634 2.1875-5.03125-.1032-.39477.0477-1.07945.34375-1.53125 .29224-.44602.52853-1.14931.53125-1.5625 .006-.81724.61274-2.60928 1.25-3.75 .82298-1.47309.29457-3.27846-.71875-2.4375-.24428.20272-.63225.33279-.84375.28125-.40118-.0978-1.38434,2.14044-1.75,3.96875-.11666.58327-.70355,1.68125-1.3125,2.4375s-1.31061,2.12062-1.53125,3.03125c-.57661,2.37982-2.90626,6.95966-4.03125,7.90625-1.27485,1.07273-2.00129,1.00528-3.03125-.21875-1.16503-1.38459-1.2457-4.31564-.28125-10.9375 .51846-3.55966.6498-3.9481 1.46875-4.53125 .70188-.49976.90847-.89091.875-1.78125-.0235-.62553.0349-1.22237.15625-1.34375s-.0774-.55209-.46875-.96875c-1.20314-1.28066-1.38603-4.74034-.40625-8.1875 .17031-.59919.12113-.59307-.65625.125-.66497.61419-.95819.7003-1.3125.40625s-.6337-.19161-1.3125.4375c-.97757.90597-1.13802,2.30526-.4375,3.75 .29127.60069.40733,2.1431.375,4.8125-.0281,2.32449.0782,4.14317.28125,4.40625 .31394.40679-.10569.98747-1.0625,1.4375-.52285.24591-2,2.5768-2,3.15625 0,2.19562-4.914,3.99264-6.40625,2.34375-.64115-.70848-1.15625-.8357-1.15625-.3125 0,.17883.65504,1.18004 1.46875,2.25 1.47278,1.93657 1.78237,2.76929 1.15625,3.15625-.53707.33193-.38445.70931.71875,1.8125 1.21334,1.21334 1.06243,1.80989-.71875,2.71875-.85047.43395-1.55959.49814-3.09375.34375-2.17215-.21857-2.7026-.51193-6.3125-3.46875-2.386-1.95438-3.08921-2.94402-3.75-5.4375-.41526-1.567-.89306-1.6545-1.5625-.28125-.2359.48391-.56225.875-.71875.875-.36655,0-6.62076-4.65447-7.21875-5.375-.24969-.30087-1.07818-.71349-1.84375-.90625-2.52735-.63641-5.04428-3.17366-7.78125-7.84375-1.57065-2.67999-1.64013-3.92404-.25-5.09375 .55635-.46814 1.25993-.8611 1.5625-.875s1.20167-.0991 2-.1875c1.10182-.12207 1.65648.0149 2.3125.5 .47531.35142 1.53789.72217 2.34375.84375l1.46875.21875-.875-.75c-.48417-.41583-1.28484-1.01885-1.75-1.34375-1.1499-.80313-1.09125-2.2482.15625-4.6875 .54249-1.06073.96875-2.06322.96875-2.25s-.76942.4121-1.71875,1.34375-2.514,2.0867-3.46875,2.5625c-1.56199.77844-1.82983.82398-2.90625.46875-2.11737-.69882-3.40625-1.59969-3.40625-2.4375 0-1.83696 1.92791-3.88054 5.1875-5.53125 1.80839-.91583 2.57227-1.14264 1.6875-.46875-.58638.44661-1.19993,4.1875-.6875,4.1875 .16896,0 .84863-.42627 1.53125-.96875s1.43248-1 1.65625-1c1.14004,0 2.46875.47531 2.46875.875 0,.57943.18061.54553 1.15625-.0937 .65173-.42701 1.06591-.46005 2.34375-.1875 .86.18342 1.70179.27526 1.84375.1875s.38014.23911.5625.71875c.31773.83568.41181.84219 2.0625.625 1.96986-.25917 3.05513-.96283 2.0625-1.34375-.3273-.12559-.85819-.0494-1.1875.15625-.38109.23799-.65457.23629-.78125.0312-.10944-.17711-.50895-.3125-.875-.3125-.39361,0-.62038-.16319-.53125-.40625 .0829-.22603.34004-.36404.5625-.3125 .53401.12375 1.35875-.59057 1.125-.96875-.10093-.1633-.31443-.2085-.5-.0937s-.69926.0403-1.125-.1875c-.62711-.33561-.95537-.35504-1.8125,0-1.30237.53945-3.81788.45325-4.8125-.1875-.76696-.49411-.94418-1.38963-.46875-2.375 .15149-.314.48981-.99252.75-1.53125 .32936-.68194 1.50898-1.62383 3.90625-3.0625 4.58402-2.75108 5.63107-3.19716 5.96875-2.59375 .14155.25292.69244.62575 1.21875.84375 .68077.282.89212.576.78125,1-.17358.66378.39537,1.21075.71875.6875 .11358-.18378.57249-.34375 1-.34375s1.22491-.37561 1.78125-.84375c1.5322-1.28928 1.24649-3.09375-.5-3.09375-1.44161,0-1.09282-.62479.9375-1.65625 1.13282-.57548 2.42293-1.30668 2.875-1.625s1.43295-.88813 2.15625-1.25 2.16827-1.13383 3.21875-1.71875 1.93429-1.0021 1.96875-.9375c.82791,1.55184.79489,1.54416 3.34375,1.03125 .9897-.19917 1.33017-.43817 1.40625-.96875 .0783-.54553-.11015-.77637-.84375-.9375-.52145-.11452-1.36645-.0371-1.875.15625s-.9581.29189-1.03125.21875c-.19-.19001 2.15962-1.37916 3.28125-1.65625 .51958-.12836 2.38817-.90714 4.125-1.71875 2.6311-1.22952 6.58872-2.37596 7.84375-2.34375zm47.34375,3.2188c-.0556.0168-.0835.0523-.125.0937-.1049.10491-.1062.40844 0,.6875 .25214.65705 1.1875.65708 1.1875,0 0-.45934-.67301-.89892-1.0625-.78125zm-112.0625.28125c.46737.003.999.0611 1.6875.15625l2.28125.3125v1.75c0,1.00634.14405,1.75.34375,1.75 .19073,0 1.34163-.56377 2.53125-1.28125 3.12624-1.88551 6.57346-2.82429 6.875-1.84375 .12672.41205-3.93033,4.63045-5.625,5.84375-.78736.56372-1.67426.90625-2.375.90625-1.0891,0-1.12621.0297-.90625,1.03125l.21875,1.03125-.9375-.875c-1.08289-1.0041-1.60479-1.07452-2.03125-.3125-.20623.36855-.54747.47842-1.0625.34375-.55138-.1442-.97289.0227-1.53125.625l-.75.84375 .90625-.0937c.49964-.0468 1.62711.10297 2.5.34375 1.192.32877 1.66471.64596 1.90625,1.28125 .48706,1.28106.0813,2.24662-1.09375,2.65625-1.35822.47346-1.51198.46513-3.15625-.28125-.94098-.42714-1.40625-.85459-1.40625-1.28125 0-.34843-.31189-.87005-.71875-1.15625l-.75-.5 .8125-.6875c.74411-.61066.78743-.69943.28125-1-1.36684-.8116-2.1316-2.3125-1.1875-2.3125 .2118,0 .64186-.23541.96875-.53125 .55033-.49805.62139-.49805.8125,0 .30501.79482.94073.67192 1.375-.28125 .4759-1.04446.48816-1.8125.0312-1.8125-.22491,0-.26186-.49344-.125-1.40625 .16699-1.11352.0977-1.50862-.34375-1.875-.50145-.41616-.66897-.32336-1.65625.84375-1.25512,1.48372-1.4185,1.33157-.5-.46875 .64317-1.26079 1.22289-1.72849 2.625-1.71875zm26.15625.0312c-.27123,0-.46875.22876-.46875.5s.19752.5.46875.5 .5-.22876.5-.5-.22876-.5-.5-.5zm129.84375.34375c-.0845.0364-.125.21126-.125.5 0,.28193.15998.42609.34375.3125s.22904-.36292.125-.53125c-.14092-.22802-.2592-.31769-.34375-.28125zm-24.5,1.125c-.14494-.002-.23552.007-.3125.0312-.91313.28981-1.5176,1.62635-1,2.25 .31534.38.28848.53236-.15625.78125-.32129.17981-.45264.492-.3125.71875 .1837.29721.37129.26558.78125-.0937 .73053-.64031 1.92846-.99356 2.15625-.625 .10161.16435 1.07808.40924 2.15625.53125 1.25926.14246 2.72423.64486 4.125,1.375 2.35147,1.22567 2.66442,1.30491 2.96875.8125 .62983-1.0191-1.62388-2.72366-3.9375-2.96875-1.30454-.13823-1.68293-.32088-1.78125-.84375-.0681-.36165-.29489-.74211-.5-.875-.71906-.46589-3.17294-1.07896-4.1875-1.09375zm-23.9375,1.9688c-.51068.0402-.97913.25958-1.28125.625-.44754.54129-.0674,2.20855.5625,2.4375 .29253.10638.88125.45037 1.3125.78125 1.07214.82259 1.8299.75627 2.46875-.21875 .60394-.92174 1.53125-1.08425 1.53125-.28125 0,.28882.94964,1.50127 2.125,2.71875 1.83987,1.90576 2.125,2.3987 2.125,3.4375 0,1.00128.12236,1.1875.6875,1.1875 .37457,0 .88272.22647 1.125.46875 .63672.63672 2.4801.26046 3.4375-.6875 .93866-.9294.72421-1.6021-.8125-2.40625-.51832-.27124-1.48603-1.04065-2.15625-1.71875s-1.43011-1.21875-1.6875-1.21875-.75227-.31017-1.09375-.6875c-.96372-1.06489-3.40856-2.625-4.125-2.625s-1.76733-.51777-2.8125-1.40625c-.3678-.31264-.89557-.44648-1.40625-.40625zm-111.46875.1875c.36165,0 .65625.18842.65625.4375 0,.55763-.79742,1.26508-1.09375.96875-.48816-.48816-.20215-1.40625.4375-1.40625zm19.125,0c.13692-.0274.28125.0575.28125.25 0,.13562-.17158.27592-.375.34375s-.3178-.0154-.25-.21875c.0688-.20627.20683-.34762.34375-.375zm11.78125,0c-.18082,0-.34375.15223-.34375.34375s.16293.268.34375.15625 .3125-.29527.3125-.375-.13167-.125-.3125-.125zm-29.125.96875c.26055,0 .57575.16294.6875.34375s-.0964.3125-.46875.3125-.6875-.13166-.6875-.3125 .20819-.34375.46875-.34375zm162.59375,1.3125c-.17016,0-.3125.16293-.3125.34375s.21808.3125.5.3125 .42425-.13167.3125-.3125-.32985-.34375-.5-.34375zm-73.65625.34375c-.21058,0-.30297.23035-.1875.53125 .11284.29415.0349.76336-.1875,1.03125-.328.39521-.28903.56622.21875.9375 .73684.5388 1.04657.58651 1.3125.15625 .10717-.1735.0487-.58247-.125-.90625s-.40206-.87107-.5-1.1875-.32541-.5625-.53125-.5625zm13.03125,2.96875c-.69829.11477-.64541.64466.1875,1.53125 .90552.9639 1.90625.988 1.90625.0625 0-.52027-.14252-.6219-.625-.46875-.51062.16205-.57967.0749-.4375-.46875 .14364-.54931.0167-.65625-.6875-.65625-.13094,0-.24399-.0164-.34375,0zm27.90625,1.40625c-.43962.1687-.39254.35699.1875,1.4375 .58684,1.09317.59381,1.30352.15625,1.625-.76598.56276-.59939,1.68335.5,3.28125 1.02542,1.4904 2.04125,1.88868 2.40625.9375 .10978-.28604.21875-.96214.21875-1.46875 0-.65626.20047-.96638.6875-1.09375 .95724-.2503.73529-1.66813-.28125-1.8125-.4354-.0618-.79956-.38739-.90625-.8125-.22578-.89955-2.28858-2.35476-2.96875-2.09375zm5.625.625c-.0477.0365-.0842.14857-.125.34375-.18917.90425.20289,1.73462.625,1.3125 .24543-.24543.23829-.57911-.0625-1.125-.23364-.42404-.35793-.5921-.4375-.53125zm-15.65625.25c.1915,0 .34375.16293.34375.34375s-.0765.3125-.15625.3125-.23199-.13167-.34375-.3125-.0352-.34375.15625-.34375zm-104.5625.0312c-.25476-.00068-.50591.10559-.65625.34375-.18122.28709-.0787.60599.28125.875 .71829.53672 1.21875.35311 1.21875-.4375 0-.4664-.41914-.78011-.84375-.78125zm-12.40625,4.71875c.88582-.063 1.8465-.0177 2.09375.1875 .71479.59324.58417,1.85324-.25,2.4375-1.01117.70827-1.12521.67597-2.40625-.71875-.62278-.6781-1.12415-1.31884-1.125-1.4375-.001-.22266.80168-.40577 1.6875-.46875zm123.78125.28125c-.13513.0351-.21875.15727-.21875.375 0,.2863.24494.53125.53125.53125s.44659-.19153.375-.40625c-.127-.38101-.46229-.55854-.6875-.5zm-25.84375,3.25c-.13096-.004-.28177.063-.40625.1875-.42084.42083-.15755,1.40625.375,1.40625 .19218,0 .45375-.24788.5625-.53125 .20551-.53557-.13838-1.05023-.53125-1.0625zm-66.4375.1875c-.23854-.0286-.64506.0571-1.15625.28125l-.96875.4375h1.03125c.57702.008 1.14597-.11292 1.25-.28125 .1643-.26585.0823-.40886-.15625-.4375zm31.65625.21875c-.24865.008-.53384.0749-.875.1875-1.30889.43197-1.308.43888-.875,1.25 .16763.31398.37082.8398.46875,1.15625 .2028.65524.76881.69873 2.03125.21875 .74884-.28472.8443-.45162.65625-1.21875-.27938-1.13966-.66029-1.6185-1.40625-1.59375zm30.0625.40625c-.15772-.0314-.25.35416-.25,1.15625 0,1.6628.25589,2.07634.875,1.5625 .31665-.2628.32783-.57907.0625-1.375-.28641-.85908-.52978-1.31236-.6875-1.34375zm-50.53125.7813c-.18084,0-.34375.13167-.34375.3125s.16291.34375.34375.34375 .3125-.16293.3125-.34375-.13168-.3125-.3125-.3125zm72.96875.3125c.17447,0 .46271.29461.65625.65625 .38755.72417.0581.90185-.5625.28125-.47534-.47533-.52919-.9375-.0937-.9375zm-36.71875,3.40625c-.19555-.0598-.34717.04-.5625.21875-.77887.64643-.63086,1.70767.375,2.53125 1.1854.97054 1.32733.93175 1.59375-.28125 .18385-.83705.0586-1.1602-.625-1.84375-.35242-.35243-.5857-.56516-.78125-.625zm15.53125,0c-.25194.0967-.71344.63334-1,1.1875-.5008.96842-.47344,1.05782.3125,1.84375 1.03821,1.03824 1.71064,1.02269 2.6875-.0312 .42759-.46141.78126-.93622.78125-1.0625-2e-005-.4714-2.34077-2.10652-2.78125-1.9375zm16.59375.375c-.2411,0-.48716.21148-.5625.4375-.0814.24448.13874.40625.5625.40625s.67524-.16177.59375-.40625c-.0753-.22602-.35266-.4375-.59375-.4375zm40.03125.21875c-.0892-.008-.19396.0138-.3125.0312-1.05257.15489-1.15495.90625-.125.90625 .55251,0 .84375-.16428.84375-.5 0-.257-.13876-.41204-.40625-.4375zm-34.15625,2c-.70533-.13433-1.12408,1.44835-.5625,2.125 .35821.43161.45669.43561.84375-.0937 .24236-.33143.39578-.92016.34375-1.28125s-.33043-.69391-.625-.75zm-45.8125.59375c-.88106,0-1.34601.64853-1.03125,1.46875 .26596.69309 1.0952.63137 1.5-.125 .53295-.99583.43065-1.34375-.46875-1.34375zm52.125,0c.37233,0 .5805.13168.46875.3125s-.39568.34375-.65625.34375-.5-.16292-.5-.34375 .31518-.3125.6875-.3125zm-22.28125,3c-.52568-.0385-.84988.28516-1.21875,1.0625-.96084,2.02481-.78246,2.41078 1.9375,4.0625 1.09365.66412 1.97209.37706 2.09375-.6875 .0593-.5193-.055-1.11754-.25-1.3125-.19496-.19498-.34375-.74836-.34375-1.25 0-.67754-.24823-1.03365-.96875-1.40625-.53368-.27598-.93459-.44566-1.25-.46875zm9.03125,1.59375c-.32166,0-.5625.21829-.5625.46875 0,.60301 1.39939,1.49846 2.34375,1.5 .41322,0 1.27335.32964 1.90625.71875 1.13692.69894 4.53721,2.19182 5.03125,2.21875 .14025.008.0192-.3857-.25-.90625-.49882-.96458-1.08419-1.375-2.09375-1.375-.3107,0-.73164-.16916-.9375-.375-.51387-.5139-4.71695-2.25-5.4375-2.25zm-66.1875.90625c-.17591.015-.34324.20412-.40625.53125-.0769.39933.0244.56479.3125.46875 .24331-.0811.4375-.32031.4375-.53125 0-.32181-.16784-.48372-.34375-.46875zm3.125.75c-.61393-.0369-.625.13012-.625.71875 0,.66517.2663.93963 1.40625,1.375 .86933.332 1.60926.89142 1.96875,1.5 .75894,1.28475 2.06904,1.37195 2.53125.15625 .17635-.46383.3125-1.05606.3125-1.3125 0-.63762-2.9432-2.09612-4.75-2.34375-.35269-.0483-.63911-.0814-.84375-.0937zm-30.75.4375c-.0393.007-.0798.003-.125.0312-.18082.1117-.34375.29528-.34375.375s.16293.125.34375.125 .3125-.15227.3125-.34375c0-.14363-.0696-.20732-.1875-.1875zm22.375.0625c-.0981-.005-.27054.0755-.5.21875-.36368.22712-.7323.73164-.84375,1.09375s-.7572,1.60589-1.4375,2.78125-1.32408,2.75696-1.4375,3.53125c-.1804,1.23146-.11577,1.53224.625,2.21875 .74588.69125.78253.86624.40625,1.46875-.342.54763-.32647.78972 0,1.3125 .22433.35922.40625.87747.40625,1.125 0,.43225 1.78872,1.20108 2.46875,1.0625 .18082-.0369.7924-.95741 1.375-2.03125 1.20063-2.21296 1.16503-2.12478.75-2.78125-.23063-.36474-.79928-.44844-2.28125-.375l-2,.0937v-1.46875c0-1.10375.33474-2.08128 1.3125-3.875 .75936-1.39304 1.30982-2.87921 1.3125-3.5s.007-.86676-.15625-.875zm68.09375,1.78125c-.10059,0-.1875.9745-.1875,2.15625 0,2.02619.0222,2.13513.625,1.8125 .35158-.18816.73389-.47848.84375-.65625 .20355-.32933-.94804-3.3125-1.28125-3.3125zm-35.1875,1.8125c-.41794.0853-.91138,1.17274-.6875,1.75 .19282.49714.2627.48344.6875-.0937 .25832-.35103.46875-.80524.46875-1.03125s-.14074-.48759-.3125-.59375c-.0553-.0342-.0965-.0434-.15625-.0312zm-46,3.8125c-.30993-.0231-.54882.1386-.6875.5-.3485.90817.12473,1.78125.96875,1.78125 .42921,0 .88824-.16293 1-.34375 .38152-.61731.74006-.31953.96875.75 .12566.58769.36398,1.22542.5,1.40625s.50281,1.08191.8125,2.03125c.6379,1.95537 1.03472,2.16641 1.40625.75 .33447-1.27508.10982-5.90625-.28125-5.90625-.16653,0-.3125.22876-.3125.5 0,.72248-.54963.57874-.75-.1875-.17882-.68382-1.53125-.92987-1.53125-.28125 0,.19394-.39856.0309-.875-.34375-.52218-.41075-.90882-.6331-1.21875-.65625zm58.28125.3125c-1.1181,0-2.9375.9006-2.9375,1.46875 0,.75289.86174,1.43726 1.96875,1.5625 2.51055.28399 2.41065.33451 2.1875-.78125-.11296-.56509-.21875-1.31721-.21875-1.65625 0-.47001-.22401-.59375-1-.59375zm-14.125.34375c-.30044.0313-.65625.42548-.65625.875 0,.50187.0499.51255.5625,0 .30568-.3057.45657-.63719.34375-.75-.0809-.0809-.14985-.13543-.25-.125zm48.5,2.9375c-.75675,0-.84713.068-.46875.3125 .27124.17528.92627.34375 1.46875.34375 .75675,0 .87837-.0992.5-.34375-.27124-.17529-.95753-.3125-1.5-.3125zm-41.96875.0312c-.26252.0722-.37534.59822-.3125,1.53125 .17404,2.58442-1.58724,7.70194-2.84375,8.28125-.61434.28324-.78959.25036-.9375-.21875-.53262-1.68941-.7804-1.81255-.59375-.28125 .18871,1.54819.94472,3.15625 1.46875,3.15625 .13654,0 .42629-.67862.65625-1.5 .28245-1.00878.68878-1.64344 1.25-1.9375 .57286-.30017.96452-.9242 1.28125-2.03125 .52379-1.83074.76895-6.67471.34375-6.9375-.12201-.0754-.22499-.0866-.3125-.0625zm-35.21875.9688c-.17968.0797-.19341.46044.125.84375 .30811.37125.47182.39706.5625.125 .0721-.21646-.0207-.55185-.21875-.75-.20526-.20526-.36094-.2666-.46875-.21875zm1.0625,1.625c-.1915,0-.23676.16293-.125.34375s.264.3125.34375.3125 .125-.13167.125-.3125-.15225-.34375-.34375-.34375zm73.875.0625c-.79631.11438-1.14333,1.21732-.5,1.625 .57487.36431.73949.36024 1.84375-.0625l.90625-.34375-.78125-.65625c-.43746-.35616-1.09435-.61626-1.46875-.5625zm-76.25.4375c-.12397.0301-.1874.2101-.28125.5625-.12662.47543-.0111.89468.3125,1.15625 .74749.60429 1.375.50997 1.375-.21875 0-.3514-.31189-.87074-.71875-1.15625-.34895-.24487-.56353-.37385-.6875-.34375zm23.5625,2.25c.1179.002.21875.1403.21875.34375 0,.27123-.16292.57574-.34375.6875s-.3125-.01-.3125-.28125 .13168-.57576.3125-.6875c.0452-.0279.0857-.0633.125-.0625zm14.8125,1.3125c-.0393-.002-.0798.0346-.125.0625-.18082.11171-.34375.32987-.34375.5s.16293.3125.34375.3125 .3125-.24936.3125-.53125c0-.21144-.0696-.33853-.1875-.34375zm1.46875,3.1875c-.83531,0-.9375.10757-.9375.90625 0,.50631-.18428,1.09053-.375,1.28125-.42693.42695 2.87013,4.0277 3.6875,4.03125 .29565,0 .77046-.33556 1.0625-.78125s.53125-.97107.53125-1.15625-.67336-1.22554-1.5-2.3125c-1.23494-1.62384-1.67766-1.96875-2.46875-1.96875zm25.71875.6875c.11422-.005.22508.015.34375.0625 .26227.1049.19551.17171-.1875.1875-.34658.0142-.54675-.0471-.4375-.15625 .0546-.0546.16703-.089.28125-.0937zm4.15625.25c.24176.0208.40625.24802.40625.65625 0,.86305.97758,2.65028 1.4375,2.65625 .21279.003.58413.14822.84375.3125 .39118.24754.38761.38302.0312.8125-.46509.56039-.74995.6563-1.09375.3125-.12055-.12053-.21875-.48095-.21875-.8125 0-.37746-.25663-.625-.65625-.625-.35098,0-.73198-.13168-.84375-.3125s-.47219-.34375-.8125-.34375c-.8677,0-1.08785-.49343-.59375-1.375 .46987-.83836 1.09707-1.3159 1.5-1.28125zm-8.6875,1.75c.0224-.008.0664.004.0937.0312 .10921.10921.12617.38765.0312.625-.1049.26226-.20297.16427-.21875-.21875-.0107-.25992.0265-.41273.0937-.4375zm11.46875.0625c.19497-.10165.25.0332.25.46875 0,.70535-.44957.9429-.78125.40625-.0991-.16035.0432-.46403.3125-.6875 .10185-.0845.15376-.15362.21875-.1875zm-39.46875.84375c-.5043,0-1.11696.921-.875,1.3125 .33916.54876.9757.20848 1.09375-.59375 .0578-.39273-.0474-.71875-.21875-.71875zm36.15625,2.15625c1.1185-.0487 2.11324.32029 1.28125.59375-.81344.26736-2.63833.4554-2.8125.28125-.39212-.39213-.0887-.66202 1.03125-.84375 .16018-.026.34021-.0243.5-.0312zm-4.84375.46875c.28191,0 .53125.16292.53125.34375s-.14234.3125-.3125.3125-.41948-.13168-.53125-.3125 .0305-.34375.3125-.34375zm-12.1875,3.09375c.1179-.0228.21875.0206.21875.15625 0,.18081-.16292.41951-.34375.53125s-.3125.0558-.3125-.125 .13168-.41949.3125-.53125c.0452-.0279.0857-.0237.125-.0312z" fill="#f06b00"/>
  <path d="m158.46 235.56c-5.5169 0-10 4.4831-10 10s4.4831 10 10 10 10-4.4831 10-10-4.4831-10-10-10zm0 1c4.9765 0 9 4.0235 9 9s-4.0235 9-9 9-9-4.0235-9-9 4.0235-9 9-9z" fill="#e46b00"/>
  <path d="m234.46 207.55c-2.7555 0-5.0033 2.2478-5.0033 5.0033s2.2478 5.0033 5.0033 5.0033 5.0033-2.2478 5.0033-5.0033-2.2478-5.0033-5.0033-5.0033zm0 1.0066c2.2151 0 3.9967 1.7816 3.9967 3.9967s-1.7816 3.9967-3.9967 3.9967-3.9967-1.7816-3.9967-3.9967 1.7816-3.9967 3.9967-3.9967z" fill="#e46b00"/>
  <path d="m294.96 288.69c-4.0651 0-7.3684 3.3033-7.3684 7.3684s3.3033 7.3684 7.3684 7.3684 7.3684-3.3033 7.3684-7.3684-3.3033-7.3684-7.3684-7.3684zm0 0.73684c3.6669 0 6.6316 2.9647 6.6316 6.6316s-2.9647 6.6316-6.6316 6.6316-6.6316-2.9647-6.6316-6.6316 2.9647-6.6316 6.6316-6.6316z" fill="#e46b00"/>
 </g>
</svg>
